<?xml version="1.0" encoding="UTF-8"?>
<svg id="_Шар_1" data-name="Шар 1" xmlns="http://www.w3.org/2000/svg" viewBox="0 0 1488 1482.54">
  <polygon fill="#2e1742" points="1488 580.06 1217.01 979.98 1202.46 800.73 1488 580.06"/>
  <polygon fill="#2e1742" points="1275.01 207.74 1104.15 1011.7 1026.76 683.63 1275.01 207.74"/>
  <polygon fill="#2e1742" points="1046.26 266.34 1046.26 401.43 971.08 489.53 971.08 370.91 1046.26 266.34"/>
  <polygon fill="#2e1742" points="285.54 800.73 271.09 979.98 0 580.06 285.54 800.73"/>
  <polygon fill="#2e1742" points="461.34 683.63 383.95 1011.7 212.99 207.74 461.34 683.63"/>
  <polygon fill="#2e1742" points="517.02 370.91 517.02 489.53 441.74 401.43 441.74 266.34 517.02 370.91"/>
  <path fill="#2e1742" d="M744.05,834.88l-104.68,178.03,104.68,172.78,104.68-172.78-104.68-178.03ZM688.07,1013.52l55.98-95.18,55.98,95.18-55.98,90.94-55.98-90.94Z"/>
  <polygon fill="#ffd400" points="800.03 1013.52 744.05 1104.46 688.07 1013.52 744.05 918.34 800.03 1013.52"/>
  <polygon fill="#2e1742" points="955.42 812.25 881.97 948.55 743.04 715.05 604.11 948.55 530.56 812.25 743.04 0 955.42 812.25"/>
  <path fill="#2e1742" d="M560.06,1297.24l-36.17-36.17h-238.35v160.75h71.74v-14.95l12.93-12.93h123.77v26.37l-9.09,9.09h-127.61l-70.22,53.15h239.66l32.74-32.74v-58.5l-19.5-19.5,20.11-20.21v-54.36ZM493.98,1345.74h-103.77l-32.94,32.94v-66.18h126.9l9.8,9.9v23.34Z"/>
  <path fill="#2e1742" d="M886.82,1371.2l22.33-22.33v-45.57l-42.23-42.23h-290.08l34.45,34.45v53.15l-21.22,21.22,22.43,22.33v56.08l-9.6,8.39-29.81,25.87h293.01l43.24-43.35v-45.47l-22.53-22.53ZM842.46,1420.51l-8.89,8.89h-171.87v-25.16l10.31-10.31h170.45v26.57ZM842.46,1345.74h-149.54l-31.22,31.22v-64.46h168.13l12.63,12.63v20.61Z"/>
  <polygon fill="#2e1742" points="1203.47 1261.07 1203.47 1317.65 1146.89 1261.07 1203.47 1261.07"/>
  <polygon fill="#2e1742" points="1203.47 1424.95 1203.47 1482.54 1004.53 1482.54 961.18 1439.2 961.18 1393.43 938.95 1371.2 960.68 1349.58 960.68 1304.72 916.93 1261.07 1031.71 1261.07 1031.71 1415.45 1041.21 1424.95 1203.47 1424.95"/>
</svg>