<?xml version="1.0" encoding="UTF-8"?>
<svg id="Layer_1" data-name="Layer 1" xmlns="http://www.w3.org/2000/svg" viewBox="0 0 249 111.75">
  <defs>
    <style>
      .cls-4 {
        fill: #36cff3;
      }

      .cls-5 {
        fill: #f97399;
      }

      .cls-6 {
        fill: #36d0f3;
      }

      .cls-7 {
        fill: #37d0f3;
      }
    </style>
  </defs>
  <polygon class="cls-4" points="249 88.5 180.92 88.16 160.02 28.5 181.7 28.5 195.16 67.5 219.09 67.5 214.48 53 202.64 42.75 232.18 42.75 249 87.75 249 88.5"/>
  <polygon class="cls-5" points="216.85 0 224.32 21.75 157.03 21.75 149.55 .75 212.82 .81 215.35 0 216.85 0"/>
  <path class="cls-7" d="M102.44.75c-1.45,7.92-9.44,20.88-7.89,28.55,1.03,5.09,5.57,11.03,4.74,16.63l-14.79,42.57H1.5l7.22-21.78,61.6-.31c2.01-3.13,6.42-21.26,8.69-22.04,1.18-.4,2.73-.03,3.99-.12l-6.35-15.75h-15.33c1.76-4.52,8.35-11.83,7.35-16.7-.87-4.24-9.57-8.65-13.33-10.3l47.11-.75Z"/>
  <path class="cls-6" d="M142.82.75c-6.59,22.28-15.54,43.82-22.43,66h36.27c.86,0,7.6-7.64,8.59-6.75l8.98,28.5h-83L117.82,11.28c-.67-3.76-1.94-6.6-2.67-10.53h27.67Z"/>
  <path class="cls-7" d="M47.11.75c3.56.58,4.25,4.51,3.56,7.69l-17.77,52.31H11.22L28.29,11.44,24.68.75c6.84.78,15.91-1.06,22.43,0Z"/>
</svg>