<?xml version="1.0" encoding="UTF-8"?>
<svg id="Layer_1" data-name="Layer 1" xmlns="http://www.w3.org/2000/svg" viewBox="0 0 249 111.75">
  <defs>
    <style>
      .cls-1 {
        fill: #36cff3;
      }

      .cls-2 {
        fill: #f97399;
      }

      .cls-3 {
        fill: #36d0f3;
      }

      .cls-4 {
        fill: #37d0f3;
      }

      .cls-5 {
        fill: #fbfdfe;
      }
    </style>
  </defs>
  <path class="cls-5" d="M24.68,0v.75l3.61,10.69L11.22,60.75h21.68L50.67,8.44c.69-3.18,0-7.12-3.56-7.69v-.75h5.23c.65,1.32,2.04,1.08,2.99,1.5,3.76,1.65,12.46,6.06,13.33,10.3,1,4.87-5.59,12.18-7.35,16.7h15.33l6.35,15.75c-1.26.09-2.81-.28-3.99.12-2.27.77-6.68,18.9-8.69,22.04l-61.6.31-7.22,21.78h83l14.79-42.57c.83-5.6-3.71-11.55-4.74-16.63-1.55-7.67,6.44-20.62,7.89-28.55v-.75h11.96c.14.29.72.59.75.75.73,3.93,2,6.77,2.67,10.53l-26.6,77.22h83l-8.98-28.5c-1-.9-7.73,6.75-8.59,6.75h-36.27c6.89-22.18,15.84-43.72,22.43-66,.06-.19.6-.46.75-.75h5.98v.75l7.48,21h67.3l-7.48-21.75h32.15v87.75l-16.82-45h-29.54l11.84,10.25,4.61,14.5h-23.93l-13.46-39h-21.68l20.91,59.66,68.08.34v23.25h-30.66v-6.75s-5.98.01-5.98.01l1.5,4.49-4.54-.32c-1.36-4.77-2.31-10.93,4.54-9.43v3.01s4.49,0,4.49,0v-5.25h-13.46v14.25h-1.5v-14.25s-3.74,0-3.74,0l-.37,9.01c-.49.02-3.81-7.64-4.79-8.52-1.33-1.19-4.9-.17-6.8-.48,2.91,3.86.96,9.57,1.5,14.24h-2.24l-.43-14.26-5.55.02c2.91,3.86.96,9.57,1.5,14.24h-2.99v-14.25c-5.99-1.02-5.09,2.17-7.1,6.04-.45.87,0,1.79-1.49,1.47l-2.54-7.06-6.81-.44c2.91,3.86.96,9.57,1.5,14.24h-1.5l-2.68-14.29-9.29.05c1.42,4.42-2.53,9.42-2.24,14.24h-1.5v-7.5s-5.98,0-5.98,0l1.49,5.24-4.54-.32c-1.27-4.42-2.36-10.82,4.13-9.47l.45,2.22c3.93.71,4.91-.57,4.44-4.42h-14.95c2.9,3.87.96,9.57,1.5,14.25h-12.71l-.43-14.26-4.8.02c1.57,4.42.4,9.56.75,14.24h-1.5v-2.25s-8.23,0-8.23,0v-12h-5.98c2.91,3.87.96,9.58,1.5,14.25h-2.24l-.43-14.26-5.55.02c1.57,4.42.4,9.56.75,14.24h-2.99l.32-14.26-7.8.02v2.24s3.76.36,3.76.36l.73,2.64-4.8.02-.43-5.27h-5.99c2.91,3.87.96,9.58,1.5,14.25h-2.99l-.43-14.26-4.8.02c2.91,3.86.96,9.57,1.5,14.24h-2.24c.09-2.62.46-2.07-1.83-2.25-2.11-.17-4.29.12-6.4,0v-12.01c-1.73-.04-3.49.06-5.23,0-.5-.02-1,0-1.5,0-1.99.03-3.99-.03-5.98,0,2.91,3.86.96,9.57,1.5,14.24h-3.74c2.79-3.75.52-9.63,1.5-14.25-2.73.02-5.49-.03-8.23,0-.5,0-1-.01-1.5,0-1.74.04-3.49-.04-5.23,0l.75,14.24H0V0h24.68Z"/>
  <polygon class="cls-1" points="249 88.5 180.92 88.16 160.02 28.5 181.7 28.5 195.16 67.5 219.09 67.5 214.48 53 202.64 42.75 232.18 42.75 249 87.75 249 88.5"/>
  <polygon class="cls-2" points="216.85 0 224.32 21.75 157.03 21.75 149.55 .75 212.82 .81 215.35 0 216.85 0"/>
  <path class="cls-4" d="M102.44.75c-1.45,7.92-9.44,20.88-7.89,28.55,1.03,5.09,5.57,11.03,4.74,16.63l-14.79,42.57H1.5l7.22-21.78,61.6-.31c2.01-3.13,6.42-21.26,8.69-22.04,1.18-.4,2.73-.03,3.99-.12l-6.35-15.75h-15.33c1.76-4.52,8.35-11.83,7.35-16.7-.87-4.24-9.57-8.65-13.33-10.3l47.11-.75Z"/>
  <path class="cls-3" d="M142.82.75c-6.59,22.28-15.54,43.82-22.43,66h36.27c.86,0,7.6-7.64,8.59-6.75l8.98,28.5h-83L117.82,11.28c-.67-3.76-1.94-6.6-2.67-10.53h27.67Z"/>
  <path class="cls-4" d="M47.11.75c3.56.58,4.25,4.51,3.56,7.69l-17.77,52.31H11.22L28.29,11.44,24.68.75c6.84.78,15.91-1.06,22.43,0Z"/>
</svg>