<svg xmlns="http://www.w3.org/2000/svg" id="Layer_1" data-name="Layer 1" viewBox="0 0 434.25 491.25" style="&#10;    /* stroke: black; */&#10;"><script xmlns="" id="pphgdbgldlmicfdkhondlafkiomnelnk"/><script xmlns=""/><script xmlns=""/>
  <defs>
    <style>
      .cls-8 {
        fill: #3063ee;
      }

      .cls-9 {
        fill: #315ff5;
      }

      .cls-10 {
        fill: #3060f2;
      }

      .cls-11 {
        fill: #76f15f;
      }
    </style>
  </defs>
  
  <path class="cls-9" d="M264.01,51.67c19.58-20.97,43.45-38.47,69.74-50.17-2.41,10.01-7.63,19.41-10.71,29.36-11.01,35.64-14.19,80.72-11.82,117.81,1.23,19.21,5.75,32.13,22.3,42.89,9.4,6.11,19.16,8.28,30.13,9.98,1.87,14.06-4.39,27.22-5.02,40.96,16.21,7.82,32.18,14.69,50.5,15.84,8.36.53,16.98-1.05,25.12,1.5v.75c-4.46,9.78-8.17,19.92-12.62,29.71-48.33,106.54-165.26,180.99-279.69,196.99l-46.66,3.95h-17.25c-2.79-.62.58-3.74,1.52-4.85,4.79-5.62,11.14-10.58,16.11-16.11,32.7-36.4,50.37-84.82,54.36-133.31-9.83-.06-20.06,3.1-29.59,3.77-32.1,2.26-77.56-4.33-105.9-20.12-9.33-5.2-8.55-8.67-10.51-18.71-1.66-8.49-1.96-17.2-3.99-25.6v-5.24c1.24-.78.75-2.84.76-4.11.05-4.99.06-10.01,0-15-.02-1.27.48-3.33-.76-4.11.08-1.48-.12-3.02,0-4.49,5.2-65.37,32.7-105.01,78.74-148.27,6.08-3.92,10.97-9.32,16.57-13.79,16.92-13.5,33.82-24.75,52.84-34.85,1.98-1.05,5.06-2.68,6.34-4.53.2-.1.55.1.75,0,13.9-6.64,26.86-12.16,41.35-17.5,1.61-.59,4.26-1.25,5.15-2.72.23-.07.52.07.75,0,9.8-2.86,19.88-6.14,29.82-8.79,6.49-1.73,13.17-3.01,19.67-4.68.41,1.99-.51,1.29-1.48,1.86-11.85,6.95-28.45,15.17-36.02,26.59-4,2.83-9.59,7.94-12,11.98-7.43,5.33-13.28,16.2-18.78,24.13-4.36,6.29-9.61,12.29-13.14,19.27-1.25,2.48-.37,2.02-.33,3.02.02.48-.1,1.14,0,1.5.11.39-.09,1.02,0,1.49,2.37-.04,4.75-.46,7.13-.78,1.4-.19,3.05.96,2.63-1.46.75-.03,1.5.04,2.25,0,4.89,1.32,10.97.82,16.13.76,1.27-.01,3.34.48,4.11-.76.75.03,1.5-.04,2.25,0-.43,2.37,1.18,1.26,2.57,1.51,4.43.78,7.78.41,11.99.8,2.72.25,5.02,2.67,8.17.73.21-.13,3.2-3.19,3.54-3.6,11.71-14.08,19.71-29.41,32.98-43.63ZM163.52,64.41c-1.39-1.49-31.74,18.98-34.73,21.1-30.79,21.89-72.42,60.93-88.15,95.45-13.84,30.38-19.37,73.99-14.26,106.89,1.3,8.37,1.2,13.16,9.16,17.07,55.96,27.48,148.19,10.25,196.58-27.12,6.11-4.72,10.9-10.09,16.55-14.93.67-.58,5.11-4.3,5.6-3.76-9.76,28.67-31.63,47.93-57.71,61.81-3.74,1.99-13.63,4.87-15.21,8.78-1.25,3.09-.26,7.19-.67,10.57-3.29,27.64-9.63,57.2-19.39,83.23-3.25,8.68-7.68,16.97-10.51,25.82,1.73,1.62,24.18-3.74,27.9-4.71,70.22-18.22,137.01-63.63,185.46-116.59,2.04-2.23,11.65-12.67,11.6-14.63-.09-3.4-13.21-9.16-15.98-10.97-14.3-9.34-30.52-27.51-39.97-41.71-35.71-53.59-39.2-113.73-34.02-176.45.55-6.62,2.08-13.19,2.24-19.85-1.77-1.84-12.32,9.47-13.88,11.22-12.51,14-22.4,30.82-31.08,47.38l-2.62,1.18c-31.48-5.81-65.36-13.69-97.53-11.1-8.41.68-16.71,2.48-25.13,2.99-.2-1.31-.04-1.65.77-2.59,3.45-3.99,18.99-9.63,24.22-13.26.89-.61,1.69-1.29,2.4-2.1,4.36-10.25,12.68-20.19,17.25-29.95.58-1.23,1.33-2.3,1.09-3.77Z"/>
  <path class="cls-11" d="M163.52,64.41c.24,1.47-.51,2.54-1.09,3.77-4.58,9.76-12.9,19.7-17.25,29.95-.71.81-1.51,1.48-2.4,2.1-5.23,3.63-20.77,9.27-24.22,13.26-.81.94-.98,1.28-.77,2.59,8.42-.51,16.72-2.31,25.13-2.99,32.17-2.59,66.05,5.29,97.53,11.1l2.62-1.18c8.67-16.56,18.57-33.38,31.08-47.38,1.56-1.75,12.11-13.06,13.88-11.22-.16,6.66-1.69,13.23-2.24,19.85-5.18,62.71-1.69,122.86,34.02,176.45,9.46,14.2,25.68,32.37,39.97,41.71,2.76,1.81,15.89,7.56,15.98,10.97.05,1.96-9.56,12.4-11.6,14.63-48.45,52.96-115.25,98.37-185.46,116.59-3.73.97-26.17,6.33-27.9,4.71,2.83-8.85,7.25-17.14,10.51-25.82,9.76-26.04,16.1-55.59,19.39-83.23.4-3.38-.58-7.48.67-10.57,1.58-3.9,11.46-6.78,15.21-8.78,26.08-13.88,47.95-33.14,57.71-61.81-.49-.54-4.93,3.18-5.6,3.76-5.65,4.84-10.44,10.21-16.55,14.93-48.39,37.37-140.62,54.59-196.58,27.12-7.95-3.91-7.86-8.69-9.16-17.07-5.11-32.9.42-76.51,14.26-106.89,15.73-34.52,57.36-73.56,88.15-95.45,2.99-2.13,33.34-22.59,34.73-21.1ZM45.44,184.23c-2.83.61-5.42,15.35-5.64,18.35-.47,6.21-1.46,23.14,6.52,24.92,3.52.79,18.3.09,19.58-4.11.43-1.38.15-2.65-.22-3.99-1.64-5.93-10.92-21.47-14.51-27.44-.86-1.43-4.32-8.03-5.73-7.72ZM194.83,193.36c-3.31.67-11.76,5.38-15.32,7.2-13.99,7.16-33.33,17.24-46.22,25.74-6.75,4.45-6.28,5.11-.12,10.32,29.75,25.18,76.89,6.48,66.91-37.61-.8-3.51-1.12-6.48-5.25-5.65Z"/>
  <path class="cls-10" d="M194.83,193.36c4.13-.83,4.45,2.13,5.25,5.65,9.99,44.08-37.15,62.78-66.91,37.61-6.15-5.21-6.63-5.86.12-10.32,12.89-8.5,32.22-18.58,46.22-25.74,3.56-1.82,12-6.53,15.32-7.2Z"/>
  <path class="cls-8" d="M45.44,184.23c1.41-.3,4.87,6.3,5.73,7.72,3.59,5.96,12.88,21.51,14.51,27.44.37,1.34.65,2.61.22,3.99-1.28,4.21-16.06,4.9-19.58,4.11-7.98-1.78-6.99-18.71-6.52-24.92.23-3,2.81-17.74,5.64-18.35Z"/>
</svg>