<svg xmlns="http://www.w3.org/2000/svg" id="Layer_1" data-name="Layer 1" viewBox="0 0 287 240" style="&#10;"><script xmlns="" id="pphgdbgldlmicfdkhondlafkiomnelnk"/><script xmlns=""/><script xmlns=""/>
  <defs>
    <style>
      .cls-12 {
        fill: #c91633;
      }

      .cls-13 {
        fill: #f9e9ec;
      }

      .cls-14 {
        fill: #c91835;
      }

      .cls-15 {
        fill: #cb203c;
      }

      .cls-16 {
        fill: #c91734;
      }

      .cls-17 {
        fill: #faedef;
      }

      .cls-18 {
        fill: #c81432;
      }

      .cls-19 {
        fill: #ca1b38;
      }

      .cls-20 {
        fill: #c81532;
      }
    </style>
  </defs>
  
  <path class="cls-20" d="M0,125l33.71-44.79,13.3-.21-4,26h25.5l1.5-1.5v-50.5h-36.5L9,5.01c1.84-.34,2.98.18,4.57.93,11.63,5.45,24.66,18.33,36.39,24.61l28.03.97,17.02,16.98v118.5l-4.84-.16c-2.91-5.12-16.47-36.53-19.83-37.67-21.21-1.81-44.99,1.84-65.89-.12-1.88-.18-3.07-.87-4.45-2.05v-2Z"/>
  <path class="cls-20" d="M287,127l-4.45,2.05-65.89.12c-3.35,1.14-16.92,32.55-19.83,37.67l-4.84.16V48.5l17.02-16.98,28.03-.97c11.73-6.29,24.76-19.16,36.39-24.61,1.59-.74,2.72-1.26,4.57-.93l-24.5,48.99h-36.5v50.5l1.5,1.5h25.5l-4-26,13.3.21,33.71,44.79v2Z"/>
  <path class="cls-12" d="M0,234c5.29-6.32,9.72-5.01,17.36-5.14,3.03-.99,1.47-15.67,1.2-18.92-5.55-2.11-12.57,1.26-14.56-6.94h22v26.5c0,.5-4.98,5.18-6.52,5.48-5.51,1.05-13.62-.72-19.48.02v-1Z"/>
  <path class="cls-18" d="M107,129v-49h21l4,26h23v-52h-46.5l-1.5-1.5v-21.5h55.5c3.45,5.03,13.89,11.81,16.55,16.45.96,1.67.83,2.24,1.01,3.99,1.85,18.73-1.34,40.78-.27,59.86l-17.3,17.7h-55.5Z"/>
  <path class="cls-12" d="M151,203c10.54-2.7,11.65,8.26,16.51,15.01,3.31,0,7.75-13.67,9.69-14.8,1.56-.91,5.72.16,7.8-.21v32h-7v-18c-4.24-.14-5.12,9.88-8.5,10.11-7.1.49-5.65-8.75-11.5-10.11v18h-7v-32Z"/>
  <path class="cls-15" d="M220,203c12.3-2.98,13.05,12.28,20.99,18-.67-8.1-.55-14.87,8.01-18v32l-8.8-.21-12.19-17.79c.67,8.1.55,14.87-8.01,18v-32Z"/>
  <path class="cls-14" d="M32,235v-32h22.5c.35,0,4.76,4.53,4.98,5.02.85,1.86.98,19.05.31,21.28-.26.87-4.91,5.7-5.3,5.7h-22.5ZM53,209l-13.56.94v18.13l13.56.94v-20Z"/>
  <path class="cls-14" d="M108,203v1.49c-.88.68-4.14,4.51-4.5,4.51h-15c-2.32,1.91-1.97,17.76-1.06,19.06l13.57.94v-7.01s-9-.49-9-.49c4.44-6.34,8.74-5.93,16-5.5v19h-22.5c-.35,0-4.76-4.53-4.98-5.02-.85-1.86-.98-19.05-.31-21.28.26-.87,4.91-5.7,5.3-5.7h22.5Z"/>
  <path class="cls-14" d="M282,203c-2.6,9.84-12.83,3.99-19.56,6.94l.5,18.63h12.13s.94-6.57.94-6.57c-.72-.73-10.26,1.52-9-1.48,2.48-5.92,10.81-4.49,15.99-4.51v19h-22.5c-.35,0-4.76-4.53-4.98-5.02-.85-1.86-.98-19.05-.31-21.28.26-.87,4.91-5.7,5.3-5.7h21.5Z"/>
  <path class="cls-19" d="M135.86,203.14l10.14,31.86-7.95-.04-.93-5.37-14.5-.64-1.72,5.95-7.89.1,10.14-31.85h12.72ZM130.92,210.07h-2.85l-3.08,12.93h9.01l-3.08-12.93Z"/>
  <polygon class="cls-14" points="214 203 214.01 209.01 207 209 207 229 214.01 228.99 214 235 191 235 190.99 228.99 198.06 228.56 198.86 210.64 197.36 209.14 190.99 209.01 191 203 214 203"/>
  <polygon class="cls-17" points="53 209 53 229 39.44 228.06 39.44 209.94 53 209"/>
  <polygon class="cls-13" points="130.92 210.07 134 223 125 223 128.08 210.07 130.92 210.07"/>
<!-- Code injected by live-server -->
</svg>