<svg xmlns="http://www.w3.org/2000/svg" id="Layer_1" data-name="Layer 1" viewBox="0 0 229.9 229.9" style="&#10;">
  <defs>
    <style>
      .cls-1 {
        fill: #e2e0de;
      }

      .cls-2 {
        fill: #e4e2e0;
      }

      .cls-3 {
        fill: #dddbd8;
      }

      .cls-4 {
        fill: #271d19;
      }

      .cls-5 {
        fill: #e0dedb;
      }

      .cls-6 {
        fill: #e7e5e3;
      }

      .cls-7 {
        fill: #e9e8e6;
      }

      .cls-8 {
        fill: #e5e3e0;
      }

      .cls-9 {
        fill: #e3e1de;
      }

      .cls-10 {
        fill: #e3e2df;
      }

      .cls-11 {
        fill: #e5e3e1;
      }

      .cls-12 {
        fill: #392f2b;
      }

      .cls-13 {
        fill: #dcd9d6;
      }

      .cls-14 {
        fill: #ecebe9;
      }

      .cls-15 {
        fill: #281e1a;
      }

      .cls-16 {
        fill: #2f2521;
      }

      .cls-17 {
        fill: #231915;
      }

      .cls-18 {
        fill: #130906;
      }

      .cls-19 {
        fill: #2e2420;
      }

      .cls-20 {
        fill: #e6e5e2;
      }

      .cls-21 {
        fill: #e8e7e4;
      }

      .cls-22 {
        fill: #e6e4e2;
      }

      .cls-23 {
        fill: #fdfdfd;
      }

      .cls-24 {
        fill: #ecebe8;
      }
    </style>
  </defs>
  <path class="cls-17" d="M123.5,0c.52.91,2.02.42,2.93.51,75.29,7.42,123.2,85.75,95.24,156.47-28.46,71.98-118.99,96.01-179.43,46.88C17.36,183.65,4.97,157.51.27,126.16c-.12-.77.26-1.78-.27-2.41v-17.86c.82-.64.42-1.79.51-2.68C5.97,49.48,49.23,5.62,103.21.51c.84-.08,2.22.38,2.68-.51h17.61ZM108.39,14.36C37.9,18.22-6.29,93.84,23.77,157.78c32.77,69.7,129.7,77.91,173.68,14.53C245.63,102.88,192.32,9.77,108.39,14.36Z"/>
  
  
  <path class="cls-14" d="M108.39,14.36c83.93-4.59,137.24,88.52,89.06,157.95-43.98,63.38-140.92,55.16-173.68-14.53C-6.29,93.84,37.9,18.22,108.39,14.36ZM49.34,49.08C.79,97.63,20.29,180.53,84.98,202.46c70.47,23.89,139.19-41.31,119.08-112.95C185.05,21.81,99.36-.95,49.34,49.08Z"/>
  <path class="cls-17" d="M49.34,49.08C99.36-.95,185.05,21.81,204.05,89.51c20.11,71.65-48.6,136.85-119.08,112.95C20.29,180.53.79,97.63,49.34,49.08ZM87.9,58.18c-2.57.3-5.66-.22-8.29,0,.42,3.02.42,6.41,0,9.44h8.55c.08,0,.54.51.64.13v-2.17c-.28-.1-.56.25-.64.25h-6v-2.3h3.7c.08,0,.36.35.64.25v-1.91c-.09-.38-.55.13-.64.13h-3.7v-2.04h5.74c.08,0,.54.51.64.13v-2.17c-.29-.1-.53.24-.64.25ZM90.33,67.62h6.25c.19,0,1.56-.55,1.84-.71,2.75-1.59,2.51-7.05-.51-8.28-.2-.08-1.5-.45-1.59-.45h-6.25c.04.58.43.73.52,1.39.32,2.31-.09,5.7-.27,8.05ZM103.85,58.18c-.8.04-1.63-.07-2.43,0-1.54.13-.22.48-.05.82.63,1.28,2.64,6.14,2.88,7.35.11.53-.04.78-.15,1.27h2.81c-.06-.48-.29-.81-.21-1.33.07-.43,1.42-3.69,1.69-4.2.09-.17.39-.71.56-.59.36,2.03,2.13,4.1,1.79,6.12h2.8s-.49-.86-.49-.86l3.55-8.58h-3.06c.47,1.49-.53,3.68-1.16,5.1-.12.28,0,.65-.5.51-.22-.06-1.59-4.05-1.62-4.28-.08-.52.15-.86.21-1.33h-3.32c.6,1.93-1.12,3.99-1.66,5.87-.56-1.86-2.01-3.94-1.66-5.87ZM123.75,58.18h-3.06s-.12,1.54-.12,1.54l-3.96,7.9h3.06c-1.23-2.82,2.33-2.54,4.22-2.31.73.09,1,1.63.63,2.31h3.31s-4.23-8.17-4.23-8.17l.15-1.27ZM135.62,58.18c-2.04-.29-4.66.21-6.76,0,.42,3.03.42,6.42,0,9.44h2.55s-.26-3.83-.26-3.83c.62.06,1.33-.09,1.93-.01,1.1.13,2.42,2.74,2.55,3.85h3.17s-2.8-3.71-2.8-3.71c3.2-1.14,3.16-5.24-.39-5.74ZM140.08,67.62h6.51c.11,0,1.52-.66,1.74-.81,2.63-1.72,2.35-6.95-.67-8.18-.2-.08-1.5-.45-1.59-.45h-6c-.1.27.26.56.26.64v8.17c0,.08-.35.36-.26.64ZM93.13,75.78h-4.47c-.08,0-.36-.35-.64-.25v2.04s3.06-.26,3.06-.26c.39,1.43-.7,1.64-1.94,1.76-6.53.63-5.11-8.4,1.32-5.86.44.17.7.44,1,.78l.89-2.03c-3.41-1.53-9.29-1.29-9.69,3.44-.49,5.77,6.63,6.5,10.35,3.95l.11-3.57ZM101.3,71.19h-3.32s.15,1.53.15,1.53l-3.97,7.91h2.8c-.35-.83-.03-1.7.68-2.25,2.19.1,5.34-1.04,4.43,2.25h3.06s-3.98-8.17-3.98-8.17l.15-1.27ZM109.72,71.19h-3.57c.18.67.45.85.53,1.64.14,1.36.18,5.11,0,6.41-.09.66-.49.81-.52,1.39h2.55c.1-.28-.25-.56-.25-.64v-5.49l3.44,5.86,3.44-5.61v5.23c0,.08-.35.36-.25.64h2.8c-.42-3.02-.42-6.41,0-9.44h-3.32c-.03,1.4-1.2,3.57-1.99,4.77-.18.27-.27.65-.69.59-.62-1.73-2.63-3.5-2.17-5.36ZM122.48,71.19h-2.8c.42,3.02.42,6.41,0,9.44h2.8c-.04-.58-.43-.73-.52-1.39-.18-1.3-.14-5.05,0-6.41.08-.79.35-.97.53-1.64ZM126.56,79.99c-.2-1.71.15-3.74,0-5.49,1.05,1.3,4.14,3.73,4.86,4.96.23.39.26.71.25,1.15h2.79c-.42-3.02-.42-6.4,0-9.43h-2.55c-.1.28.25.56.25.64v5.23c-.7-.7-4.96-4.5-5.05-5.01-.05-.27.29-.78.2-.86h-3.06c.42,3.03.42,6.42,0,9.44h2.55c.1-.29-.24-.53-.25-.64ZM146.46,75.78h-4.47c-.08,0-.36-.35-.64-.25v2.04s3.06-.25,3.06-.25c.33,1.71-1.92,1.89-3.19,1.79-4.57-.38-4.06-7.08,1.16-6.27l2.55,1.04.76-1.92c-3.11-1.26-9.04-1.48-9.67,2.95-.89,6.2,6.25,7.13,10.33,4.44l.11-3.57ZM175.29,114.31h-19.26l-1.66,8.17h7.65l-1.77,9.07c-5.96.94-13.55.84-17.32-4.65-3.06-4.46-2.29-11.43.26-15.98,5.76-10.26,20.51-10.82,30.4-7.09l5.01-9.92c-13.87-4.79-30.69-2.99-41.93,6.86-8.48-9.88-22.03-9.33-33.98-9.18l-10.34,1.14,4,45.83c7.31.72,14.81,1.06,22.08-.09,5.09-.8,10.55-2.51,14.4-6.03.35-.06,2.09,1.88,2.56,2.24,7.29,5.61,20.35,5.04,28.97,3.54.98-.17,4.22-.66,4.87-1,1.06-.54,5.3-20.31,6.04-22.92ZM87.52,102.06l-1.02-10.21h-35.47l11.86,46.95h29.73l-.8-7.36-19.88-.15-2.03-10.09h18.63l-1-8.56-19.43-.22c-.47-3.26-1.69-6.58-2.02-9.84h21.28s.15-.51.15-.51ZM72.85,152.08c-2.81.33-6.19-.24-9.06,0v1.79c1.15-.23,2.85-.64,3.83.13v7.4c0,.08-.35.36-.25.64h2.42c.38-.09-.13-.55-.13-.64v-7.78l3.83.25v-2.04c-.29-.1-.53.24-.64.25ZM125.03,153.99v7.14c0,.13-.4.54-.25.89h2.17c.42-.19-.13-.77-.13-.89v-7.14c1.04-.77,2.87-.37,4.08-.13l-.13-2.04c-3.14.44-6.68.41-9.82,0v2.04c.7-.24,3.86-.58,4.08.13ZM138.39,153.44c-2.74,2.93-1.05,7.85,2.91,8.53,7.72,1.32,9.75-7.9,3.44-9.82-1.99-.6-4.88-.28-6.35,1.29ZM49.24,152.08h-2.55c.44,3.17.4,6.77,0,9.95h2.55c-.42-3.19-.42-6.75,0-9.95ZM60.22,158.45c-.43.09-.52-.14-.76-.39-1.31-1.35-2.72-2.8-3.96-4.2-1.36-1.53-.88-2.17-3.7-1.79.42,3.2.42,6.76,0,9.95h2.04s0-6.89,0-6.89c1.85,1.82,4.1,3.88,5.76,5.85.26.31.33.61.4,1l2.26.04c.1-.28-.25-.56-.25-.64v-9.31h-2.04c-.1.28.25.56.25.64v5.74ZM84.2,152.08h-9.19v9.95h9.44v-2.04c-.28-.1-.56.25-.64.25h-6.76v-2.55h4.85v-1.79h-4.85l.24-2.19,6.9.14v-1.79ZM93.77,152.08c-2.13-.38-5.28.28-7.53,0,.44,3.21.39,6.74,0,9.95h2.29s-.22-3.92-.22-3.92c.2-.59,2.05-.54,2.6-.37.58.18,2.65,3.49,2.88,4.31l2.65-.15-2.81-4.21c3.34-.27,3.28-5.05.13-5.62ZM98.24,152.08v9.95h2.04c.15-.36-.25-.76-.25-.89v-6.25l5.88,5.98.25,1.15h2.28c-.39-3.2-.43-6.73,0-9.94h-2.04c-.1.28.25.56.25.64v5.74c-.99-.35-1.94-1.51-2.68-2.29-.87-.91-2.18-2.26-2.94-3.19-.19-.24-.19-.58-.28-.86l-2.52-.04ZM116.83,152.11h-2.49s-4.11,9.92-4.11,9.92l2-.03c.6-3.07,1.56-3.08,4.52-2.79,1.57.16,1.89,1.37,1.9,2.82h2.55s-4.37-9.92-4.37-9.92ZM135.23,152.08h-2.81c.44,3.17.4,6.77,0,9.95h2.8c.19-.76-.46-.26-.53-.87-.19-1.57-.19-6.39,0-7.94.07-.56.26-.71.53-1.13ZM152.33,162.03v-6.89c1.89,1.81,4.09,3.87,5.76,5.85.26.31.33.61.4,1l2.01.04v-9.95h-2.04c-.1.28.25.56.25.64v5.74c-.45.11-.51-.19-.77-.38-.83-.63-3.94-4.02-4.74-4.96-.26-.31-.33-.61-.4-1l-2.51-.04c.42,3.2.42,6.76,0,9.95h2.04ZM168.89,152.1l-2.51-.02-4.09,9.94h2.29c-.12-1.03.39-1.98.94-2.82l4.45.17,1.03,2.61,2.26.03-4.36-9.92ZM175.04,162.03h8.93v-1.79h-6.89v-7.53c0-.08.35-.36.25-.64h-2.29c.43,3.21.39,6.74,0,9.95Z"/>
  <path class="cls-14" d="M175.29,114.31c-.75,2.6-4.99,22.38-6.04,22.92-.65.33-3.89.82-4.87,1-8.62,1.5-21.68,2.06-28.97-3.54-.47-.36-2.21-2.3-2.56-2.24-3.86,3.52-9.31,5.23-14.4,6.03-7.28,1.15-14.78.81-22.08.09l-4-45.83,10.34-1.14c11.95-.15,25.51-.7,33.98,9.18,11.24-9.85,28.06-11.65,41.93-6.86l-5.01,9.92c-9.89-3.73-24.64-3.17-30.4,7.09-2.55,4.55-3.32,11.52-.26,15.98,3.77,5.49,11.36,5.58,17.32,4.65l1.77-9.07h-7.65l1.66-8.17h19.26ZM106.66,132.17h7.53c2.04,0,6.77-2.02,8.41-3.32,6.33-5.03,7.49-17.59,1.67-23.35-4.06-4.01-12.27-5.13-17.68-4.14-.52.09-1.18.24-1.23.84l1.29,29.98Z"/>
  <path class="cls-24" d="M66.09,102.57c.34,3.26,1.55,6.58,2.02,9.84l19.43.22,1,8.56h-18.63l2.03,10.09,19.88.15.8,7.36h-29.73l-11.86-46.95h35.47l1.02,10.21h-21.28c-.24-.03-.17.34-.15.51Z"/>
  <path class="cls-2" d="M103.85,58.18c-.36,1.93,1.1,4.01,1.66,5.87.54-1.88,2.26-3.94,1.66-5.87h3.32c-.06.48-.29.81-.21,1.33.03.23,1.4,4.22,1.62,4.28.49.14.37-.23.5-.51.63-1.43,1.63-3.61,1.16-5.1h3.06s-3.55,8.58-3.55,8.58l.49.86h-2.8c.34-2.02-1.43-4.09-1.79-6.12-.16-.13-.47.42-.56.59-.28.51-1.63,3.77-1.69,4.2-.08.52.15.85.21,1.33h-2.81c.11-.49.25-.73.15-1.27-.24-1.2-2.25-6.07-2.88-7.35-.17-.35-1.49-.69.05-.82.8-.07,1.63.05,2.43,0Z"/>
  <path class="cls-22" d="M109.72,71.19c-.46,1.86,1.56,3.63,2.17,5.36.42.06.51-.32.69-.59.79-1.2,1.96-3.36,1.99-4.77h3.32c-.42,3.03-.42,6.42,0,9.44h-2.8c-.1-.28.25-.56.25-.64v-5.23l-3.44,5.61-3.44-5.86v5.49c0,.08.35.36.25.64h-2.55c.04-.58.43-.73.52-1.39.18-1.3.14-5.05,0-6.41-.08-.79-.35-.97-.53-1.64h3.57Z"/>
  <path class="cls-10" d="M126.56,79.99c.01.11.35.35.25.64h-2.55c.42-3.02.42-6.41,0-9.44h3.06c.09.08-.25.59-.2.86.09.5,4.35,4.3,5.05,5.01v-5.23c0-.08-.35-.36-.25-.64h2.55c-.42,3.02-.42,6.41,0,9.44h-2.79c0-.45-.02-.77-.25-1.16-.72-1.23-3.82-3.67-4.86-4.96.15,1.75-.2,3.78,0,5.49Z"/>
  <path class="cls-21" d="M93.77,152.08c3.16.56,3.21,5.34-.13,5.62l2.81,4.21-2.65.15c-.24-.81-2.3-4.13-2.88-4.31-.55-.17-2.4-.22-2.6.37l.22,3.92h-2.29c.39-3.21.44-6.74,0-9.95,2.25.28,5.4-.38,7.53,0ZM88.29,156.16h4.98c1.43,0,.82-2.55,0-2.55h-4.98v2.55Z"/>
  <path class="cls-10" d="M60.22,158.45v-5.74c0-.08-.35-.36-.25-.64h2.04s0,9.31,0,9.31c0,.08.35.36.25.64l-2.26-.04c-.07-.39-.14-.68-.4-1-1.66-1.97-3.9-4.04-5.76-5.85v6.89h-2.04c.42-3.19.42-6.75,0-9.95,2.82-.38,2.34.25,3.7,1.79,1.25,1.4,2.65,2.86,3.96,4.2.24.25.33.48.76.39Z"/>
  <path class="cls-21" d="M152.33,162.03h-2.04c.42-3.19.42-6.75,0-9.95l2.51.04c.07.39.14.68.4,1,.8.95,3.91,4.33,4.74,4.96.26.2.32.49.77.38v-5.74c0-.08-.35-.36-.25-.64h2.04s0,9.95,0,9.95l-2.01-.04c-.07-.39-.14-.68-.4-1-1.67-1.99-3.87-4.05-5.76-5.85v6.89Z"/>
  <path class="cls-8" d="M135.62,58.18c3.55.5,3.59,4.6.39,5.74l2.8,3.7h-3.17c-.13-1.1-1.45-3.71-2.55-3.84-.6-.07-1.31.08-1.93.01l.26,3.83h-2.55c.42-3.02.42-6.41,0-9.44,2.11.21,4.73-.29,6.76,0ZM131.15,62.26h4.21c1.38,0,.99-2.55-.26-2.55h-3.95v2.55Z"/>
  <path class="cls-6" d="M84.2,152.08v1.79s-6.91-.14-6.91-.14l-.24,2.19h4.85v1.79h-4.85v2.55h6.76c.08,0,.36-.35.64-.25v2.04s-9.44,0-9.44,0v-9.95h9.19Z"/>
  <path class="cls-7" d="M98.24,152.08l2.52.04c.09.28.09.62.28.86.76.93,2.07,2.28,2.94,3.19.75.78,1.69,1.94,2.68,2.29v-5.74c0-.08-.35-.36-.25-.64h2.04c-.44,3.21-.39,6.74,0,9.95h-2.28s-.25-1.16-.25-1.16l-5.88-5.98v6.25c0,.13.4.54.25.89h-2.04s0-9.95,0-9.95Z"/>
  <path class="cls-1" d="M87.9,58.18c.11-.01.35-.35.64-.25v2.17c-.09.38-.55-.13-.64-.13h-5.74v2.04h3.7c.08,0,.54-.51.64-.13v1.91c-.28.1-.56-.25-.64-.25h-3.7v2.3h6c.08,0,.36-.35.64-.25v2.17c-.09.38-.55-.13-.64-.13h-8.55c.42-3.03.42-6.42,0-9.44,2.63-.22,5.72.3,8.29,0Z"/>
  <path class="cls-2" d="M138.39,153.44c1.46-1.57,4.36-1.9,6.35-1.29,6.31,1.92,4.28,11.14-3.44,9.82-3.96-.68-5.64-5.6-2.91-8.53ZM141.54,153.66c-1.52.31-2.53,1.89-2.5,3.39.08,4.11,6.52,4.55,7.31.65.62-3.06-2-4.61-4.81-4.04Z"/>
  <path class="cls-8" d="M90.33,67.62c.18-2.35.59-5.74.27-8.05-.09-.66-.49-.81-.52-1.39h6.25c.09,0,1.39.37,1.59.45,3.02,1.22,3.26,6.69.51,8.28-.28.16-1.65.71-1.84.71h-6.25ZM92.62,66.09c2.68.03,5.65.34,5.63-3.19s-3.02-3.27-5.63-3.19v6.38Z"/>
  <path class="cls-20" d="M140.08,67.62c-.1-.27.26-.56.26-.64v-8.17c0-.08-.35-.36-.26-.64h6c.09,0,1.39.37,1.59.45,3.02,1.23,3.29,6.46.67,8.18-.22.15-1.63.81-1.74.81h-6.51ZM142.38,66.09c2.93.08,5.79.31,5.63-3.45-.14-3.25-3.12-2.94-5.63-2.93v6.38Z"/>
  <path class="cls-8" d="M93.13,75.78l-.11,3.57c-3.72,2.55-10.84,1.82-10.35-3.95.4-4.72,6.28-4.96,9.69-3.44l-.89,2.03c-.3-.34-.57-.61-1-.78-6.43-2.54-7.85,6.49-1.32,5.86,1.24-.12,2.33-.33,1.94-1.76l-3.06.26v-2.04c.28-.1.56.25.64.25h4.47Z"/>
  <path class="cls-9" d="M146.46,75.78l-.11,3.57c-4.08,2.69-11.22,1.76-10.33-4.44.64-4.43,6.56-4.21,9.67-2.95l-.76,1.92-2.55-1.04c-5.22-.81-5.73,5.9-1.16,6.27,1.27.1,3.52-.07,3.19-1.79l-3.06.25v-2.04c.28-.1.56.25.64.25h4.47Z"/>
  <path class="cls-11" d="M168.89,152.1l4.36,9.92-2.26-.03-1.03-2.61-4.45-.17c-.55.83-1.05,1.78-.94,2.82h-2.29s4.09-9.94,4.09-9.94l2.51.02ZM167.89,154.63c-.65-.48-1.68,2.58-1.78,3.06h2.8s-1.02-3.06-1.02-3.06Z"/>
  <path class="cls-8" d="M116.83,152.11l4.37,9.92h-2.55c0-1.45-.33-2.66-1.9-2.82-2.95-.29-3.91-.29-4.52,2.79l-2,.03,4.11-9.92h2.49ZM116.86,157.69l-.12-.77-1.41-2.54c.02.63-1.64,2.96-1.28,3.31h2.8Z"/>
  <path class="cls-11" d="M123.75,58.18l-.15,1.27,4.23,8.17h-3.31c.37-.68.11-2.23-.63-2.31-1.9-.23-5.45-.5-4.22,2.31h-3.06s3.96-7.9,3.96-7.9l.12-1.54h3.06ZM123.5,64.04c.24-.24-1.1-2.86-1.4-3.31-.24,0-1.59,3.13-1.4,3.31h2.8Z"/>
  <path class="cls-2" d="M101.3,71.19l-.15,1.27,3.98,8.17h-3.06c.91-3.3-2.23-2.16-4.43-2.25-.71.56-1.03,1.42-.68,2.25h-2.8s3.97-7.91,3.97-7.91l-.15-1.53h3.32ZM101.04,77.06c-.09-.47-1.14-3.54-1.78-3.06-.18,1.09-1.18,1.9-1.02,3.06h2.81Z"/>
  <path class="cls-6" d="M72.85,152.08c.11-.01.35-.35.64-.25v2.04s-3.83-.25-3.83-.25v7.78c0,.08.51.54.13.64h-2.42c-.1-.28.25-.56.25-.64v-7.4c-.97-.77-2.68-.36-3.83-.13v-1.79c2.87-.24,6.25.33,9.06,0Z"/>
  <path class="cls-6" d="M125.03,153.99c-.22-.71-3.38-.37-4.08-.13v-2.04c3.14.41,6.68.43,9.82,0l.13,2.04c-1.21-.24-3.04-.64-4.08.13v7.14c0,.12.55.7.13.89h-2.17c-.15-.36.25-.76.25-.89v-7.14Z"/>
  <path class="cls-6" d="M175.04,162.03c.39-3.21.44-6.74,0-9.95h2.29c.1.28-.25.56-.25.64v7.53h6.89v1.79h-8.93Z"/>
  <path class="cls-3" d="M135.23,152.08c-.26.43-.45.58-.53,1.13-.2,1.55-.19,6.38,0,7.94.07.61.72.11.53.87h-2.8c.4-3.18.44-6.78,0-9.95h2.81Z"/>
  <path class="cls-13" d="M49.24,152.08c-.42,3.2-.42,6.76,0,9.95h-2.55c.4-3.18.44-6.78,0-9.95h2.55Z"/>
  <path class="cls-5" d="M122.48,71.19c-.17.67-.45.85-.53,1.64-.14,1.36-.18,5.11,0,6.41.09.66.49.81.52,1.39h-2.8c.42-3.03.42-6.42,0-9.44h2.8Z"/>
  <path class="cls-18" d="M87.52,102.06l-.15.52h-21.28c-.02-.18-.1-.55.15-.52h21.28Z"/>
  <path class="cls-17" d="M106.66,132.17l-1.29-29.98c.04-.6.71-.74,1.23-.84,5.41-.99,13.62.12,17.68,4.14,5.82,5.76,4.66,18.32-1.67,23.35-1.65,1.31-6.37,3.32-8.41,3.32h-7.53Z"/>
  <path class="cls-19" d="M88.29,156.16v-2.55h4.98c.82,0,1.43,2.55,0,2.55h-4.98Z"/>
  <path class="cls-16" d="M131.15,62.26v-2.55h3.95c1.24,0,1.64,2.55.26,2.55h-4.21Z"/>
  <path class="cls-4" d="M141.54,153.66c2.8-.58,5.43.98,4.81,4.04-.79,3.9-7.23,3.46-7.31-.65-.03-1.5.98-3.07,2.5-3.39Z"/>
  <path class="cls-15" d="M92.62,66.09v-6.38c2.62-.08,5.62-.22,5.63,3.19s-2.95,3.22-5.63,3.19Z"/>
  <path class="cls-15" d="M142.38,66.09v-6.38c2.51-.01,5.49-.32,5.63,2.93.16,3.76-2.69,3.53-5.63,3.45Z"/>
  <path class="cls-19" d="M167.89,154.63l1.02,3.06h-2.8c.1-.48,1.13-3.54,1.78-3.06Z"/>
  <path class="cls-16" d="M116.86,157.69h-2.8c-.36-.35,1.3-2.69,1.28-3.31l1.41,2.54.12.77Z"/>
  <path class="cls-12" d="M123.5,64.04h-2.8c-.19-.19,1.16-3.31,1.4-3.31.3.45,1.64,3.08,1.4,3.31Z"/>
  <path class="cls-12" d="M101.04,77.06h-2.81c-.16-1.16.84-1.97,1.02-3.06.64-.48,1.69,2.58,1.78,3.06Z"/>
</svg>