<svg xmlns="http://www.w3.org/2000/svg" viewBox="0 0 90 92.74">
  <g id="Layer_1" data-name="Layer 1">
    <path fill="white" d="M85.44,31.72l-14.69-10.67-18.57-13.47c-4.03-2.92-10.33-2.92-14.36,0l-18.56,13.47-14.14,10.26c-2.81,2.04-5.12,6.56-5.12,10.04v42.08c0,2.36.89,4.51,2.35,6.16.06.13.12.25.22.36.17.2.37.35.6.45,1.64,1.45,3.79,2.34,6.15,2.34h71.38c2.36,0,4.52-.89,6.16-2.35.22-.1.43-.24.59-.44.09-.11.16-.24.21-.36,1.46-1.64,2.35-3.8,2.35-6.16v-42.77c0-3.16-2-7.09-4.56-8.95ZM58.16,64.03c-.66-.54-.66-1.55,0-2.09l8.45-6.89,19.91-16.23c.19.64.3,1.26.3,1.83v42.77c0,.46-.05.92-.15,1.35-.22.96-1.4,1.35-2.16.72l-26.34-21.47ZM6.43,34.3l14.7-10.67s0,0,0,0l17.77-12.9c3.36-2.44,8.85-2.44,12.2,0l17.77,12.9s0,0,0,0l14.69,10.67c.19.13.37.29.54.46.57.56.52,1.5-.1,2l-19.42,15.83-9.39,7.65c-.49.4-1.2.4-1.7,0l-.67-.55c-4.31-3.51-11.36-3.51-15.67,0l-.67.55c-.49.4-1.2.4-1.7,0l-9.39-7.65-19.42-15.83c-.62-.5-.67-1.45-.1-2,.18-.17.36-.33.55-.46ZM5.5,85.5c-.77.63-1.94.24-2.16-.72-.1-.43-.15-.89-.15-1.35v-42.77c0-.57.11-1.19.3-1.83l19.91,16.23,8.45,6.89c.66.54.66,1.55,0,2.09l-26.34,21.47ZM9.31,89.55s-.02,0-.03,0c-1.23,0-1.74-1.61-.78-2.39l31.53-25.7c2.7-2.2,7.25-2.2,9.95,0l31.53,25.7c.95.78.45,2.38-.78,2.39-.01,0-.02,0-.03,0,0,0-71.38,0-71.38,0Z"/>
  </g>
  <g id="Layer_3" data-name="Layer 3">
    <g>
      <path fill="none" stroke="rgb(179, 179, 179)" strokeMiterlimit="10" strokeDasharray="2" d="M37.05,59.19c-.25-.22-.5-.44-.75-.66"/>
      <path fill="none" stroke="rgb(179, 179, 179)" strokeMiterlimit="10" strokeDasharray="2" d="M34.85,57.18c-11.11-10.76-15.65-25.03-12.28-34.55,2.41-6.79,7.05-8.77,7.05-8.77.86-.38,4.06-1.81,6.37,0,3.75,2.93,4.01,13.42,0,18.95-4.42,6.09-13.33,5.24-18.14,0-5.22-5.7-6.18-17.24-1.03-26.48"/>
      <path fill="none" stroke="rgb(179, 179, 179)" strokeMiterlimit="10" d="M17.32,5.47c.17-.28.35-.57.54-.84"/>
    </g>
    <path fill="none" stroke="rgb(179, 179, 179)" strokeMiterlimit="10" strokeDasharray="2" d="M53.23,59.82s-3.28-8.79,3.73-17.69,12.97-11.01,17.44-12.3,5.66-5.62,2.98-11.36"/>
    <path fill="white" d="M21.01,4.47c.02-.79-.15-2.1-.28-2.74.02-.02.04-.05.06-.08.19-.32.02-.78-.37-1.07l.2-.35c.1-.17-.17-.33-.27-.15l-.2.35c-.45-.2-.93-.12-1.12.21-.02.03-.03.06-.04.09-.62.21-1.84.7-2.52,1.12-.12.07-.25.16-.28.3-.04.18.09.34.24.45.35.28.8.42,1.25.45.02.44.21.82.55,1.02s.76.17,1.15-.03c.25.38.59.69,1.01.86.17.07.38.1.51-.02.1-.1.11-.25.12-.4Z"/>
    <path fill="white" d="M79.33,16.03c-.56-.56-1.63-1.34-2.18-1.69,0-.03,0-.06-.02-.1-.11-.36-.55-.55-1.03-.47l-.11-.39c-.06-.19-.35-.1-.3.09l.11.39c-.45.19-.72.59-.62.95,0,.03.02.06.04.09-.28.59-.76,1.82-.93,2.6-.03.14-.06.29.02.41.1.15.31.17.49.14.44-.07.85-.29,1.19-.6.33.29.74.41,1.11.3s.65-.44.77-.86c.44.08.91.05,1.32-.14.16-.07.34-.2.34-.38,0-.14-.11-.26-.21-.36Z"/>
  </g>
</svg>