<?xml version="1.0" encoding="UTF-8" standalone="no"?>
<svg
   xmlns:dc="http://purl.org/dc/elements/1.1/"
   xmlns:cc="http://creativecommons.org/ns#"
   xmlns:rdf="http://www.w3.org/1999/02/22-rdf-syntax-ns#"
   xmlns:svg="http://www.w3.org/2000/svg"
   xmlns="http://www.w3.org/2000/svg"
   xmlns:sodipodi="http://sodipodi.sourceforge.net/DTD/sodipodi-0.dtd"
   xmlns:inkscape="http://www.inkscape.org/namespaces/inkscape"
   version="1.0"
   width="161"
   height="279"
   viewBox="0 0 1610 2790"
   preserveAspectRatio="xMidYMid meet"
   id="svg2253"
   sodipodi:docname="Evil_geniuses_logo.svg"
   inkscape:version="0.92.5 (2060ec1f9f, 2020-04-08)">
  <metadata
     id="metadata2259">
    <rdf:RDF>
      <cc:Work
         rdf:about="">
        <dc:format>image/svg+xml</dc:format>
        <dc:type
           rdf:resource="http://purl.org/dc/dcmitype/StillImage" />
        <dc:title></dc:title>
      </cc:Work>
    </rdf:RDF>
  </metadata>
  <defs
     id="defs2257" />
  <sodipodi:namedview
     pagecolor="#ffffff"
     bordercolor="#666666"
     borderopacity="1"
     objecttolerance="10"
     gridtolerance="10"
     guidetolerance="10"
     inkscape:pageopacity="0"
     inkscape:pageshadow="2"
     inkscape:window-width="1920"
     inkscape:window-height="1017"
     id="namedview2255"
     showgrid="false"
     inkscape:zoom="1.9748954"
     inkscape:cx="263.8486"
     inkscape:cy="163.10665"
     inkscape:window-x="-8"
     inkscape:window-y="-8"
     inkscape:window-maximized="1"
     inkscape:current-layer="svg2253" />
  <g
     id="layer101"
     transform="matrix(0.29278964,0,0,0.29278964,-1.794669,-5.7862)"
     style="fill:#0c1220;stroke:none">
    <path
       d="m 676,9431 -67,-80 -55,-518 c -30,-285 -59,-558 -64,-608 -5,-49 -10,-98 -10,-108 0,-16 10,-17 103,-15 l 102,3 12,220 c 23,443 33,633 39,773 4,78 8,141 10,140 3,-3 11,-150 44,-772 10,-197 21,-360 23,-362 2,-3 49,-3 104,-2 l 99,3 -33,305 c -17,168 -41,388 -52,490 -11,102 -26,243 -33,314 l -12,130 -64,80 c -35,45 -67,82 -71,84 -5,2 -39,-33 -75,-77 z"
       id="path2222"
       inkscape:connector-curvature="0" />
    <path
       d="m 3690,9353 c -61,-22 -84,-40 -101,-77 -17,-38 -19,-78 -19,-609 v -568 l 98,3 97,3 3,543 c 2,510 3,543 20,540 16,-3 17,-39 20,-546 l 2,-542 h 95 95 v 573 c 0,649 3,620 -80,664 -36,19 -58,23 -129,22 -47,0 -93,-3 -101,-6 z"
       id="path2224"
       inkscape:connector-curvature="0" />
    <path
       d="m 4187,9346 c -88,-32 -97,-55 -97,-266 v -171 l 93,3 92,3 3,143 c 2,134 4,142 22,142 19,0 20,-7 20,-146 0,-89 -4,-154 -11,-167 -7,-12 -47,-59 -90,-104 -43,-45 -89,-104 -103,-132 -25,-49 -26,-55 -26,-253 0,-227 6,-249 72,-285 50,-27 230,-26 277,2 72,42 76,56 76,248 v 172 h -95 -95 l -3,-142 c -2,-135 -4,-143 -22,-143 -19,0 -20,7 -20,140 0,169 1,172 114,290 122,127 121,125 121,372 0,193 -1,208 -21,235 -36,49 -97,73 -189,73 -44,-1 -97,-7 -118,-14 z"
       id="path2226"
       inkscape:connector-curvature="0" />
    <path
       d="m 5121,9338 c -82,-42 -86,-55 -86,-251 v -172 h 95 95 l 3,143 c 2,134 4,142 22,142 19,0 20,-7 20,-139 0,-77 -5,-152 -11,-167 -5,-16 -48,-68 -95,-116 -126,-131 -129,-140 -129,-385 0,-189 1,-203 21,-230 41,-55 78,-68 194,-68 120,0 159,15 195,75 18,31 20,52 20,200 v 165 h -95 -95 l -3,-142 c -2,-135 -4,-143 -22,-143 -19,0 -20,7 -20,146 0,90 4,154 12,167 6,12 48,61 93,109 45,47 93,108 106,135 23,46 24,58 24,243 0,178 -2,198 -20,230 -34,56 -75,74 -185,78 -84,3 -100,1 -139,-20 z"
       id="path2228"
       inkscape:connector-curvature="0" />
    <path
       d="m 70,8725 v -625 h 164 165 l 6,58 c 3,31 8,76 11,100 l 5,42 h -75 -76 v 160 160 h 74 75 l 6,58 c 13,119 21,107 -72,110 l -83,3 v 179 179 l 92,3 92,3 7,40 c 4,22 9,66 11,98 l 5,57 H 273 70 Z"
       id="path2230"
       inkscape:connector-curvature="0" />
    <path
       d="m 1036,9008 c -7,-338 -7,-347 23,-623 17,-154 31,-281 31,-282 0,-2 34,-3 75,-3 h 75 v 625 625 h -99 -98 z"
       id="path2232"
       inkscape:connector-curvature="0" />
    <path
       d="m 1320,8725 v -625 h 100 100 v 525 524 l 68,3 67,3 3,98 3,97 h -171 -170 z"
       id="path2234"
       inkscape:connector-curvature="0" />
    <path
       d="m 1927,9336 c -20,-8 -45,-20 -54,-27 -42,-35 -43,-55 -43,-591 0,-571 -1,-562 68,-601 41,-24 179,-34 239,-18 104,28 125,82 121,311 l -3,145 -97,3 -98,3 v -151 c 0,-144 -1,-150 -20,-150 -20,0 -20,5 -18,458 l 3,457 23,3 22,3 v -163 c -1,-122 -5,-182 -19,-240 l -18,-78 h 113 114 l -2,323 -3,322 -145,2 c -102,2 -156,-2 -183,-11 z"
       id="path2236"
       inkscape:connector-curvature="0" />
    <path
       d="m 2340,8725 v -625 h 175 175 v 100 100 h -75 -75 v 160 160 h 65 65 v 85 85 h -65 -65 v 180 180 h 75 75 v 100 100 h -175 -175 z"
       id="path2238"
       inkscape:connector-curvature="0" />
    <path
       d="m 2770,8725 v -625 h 95 c 52,0 95,2 95,5 0,5 44,374 53,445 3,19 4,-74 3,-207 l -1,-243 h 92 93 v 625 625 h -93 -94 l -17,-142 c -10,-79 -26,-199 -35,-268 l -18,-125 4,180 c 2,99 5,219 7,268 l 3,87 h -93 -94 z"
       id="path2240"
       inkscape:connector-curvature="0" />
    <path
       d="m 3290,8725 v -625 h 100 100 v 625 625 h -100 -100 z"
       id="path2242"
       inkscape:connector-curvature="0" />
    <path
       d="m 4600,8725 v -625 h 175 175 v 100 100 h -75 -75 v 160 160 h 65 65 v 85 85 h -65 -65 v 180 180 h 75 75 v 100 100 h -175 -175 z"
       id="path2244"
       inkscape:connector-curvature="0" />
    <path
       d="m 2965,7260 c -3,-8 -4,-498 -3,-1089 l 3,-1074 130,-32 c 145,-36 256,-78 360,-135 229,-126 434,-328 564,-555 l 51,-90 -450,-3 -450,-2 v -625 -625 h 1113 1113 l 23,119 c 60,328 64,636 10,951 -84,496 -289,932 -616,1317 -139,163 -1841,1860 -1848,1843 z"
       id="path2246"
       inkscape:connector-curvature="0" />
    <path
       d="M 2405,6339 C 1564,6215 859,5750 434,5038 102,4481 -18,3819 96,3180 177,2732 367,2314 656,1950 720,1869 2536,40 2552,40 c 5,0 7,489 6,1086 l -3,1087 -100,22 c -187,43 -349,110 -492,205 -195,130 -371,321 -472,510 l -42,80 h 450 451 v 625 625 h -450 -450 l 24,48 c 49,96 150,236 239,328 201,211 421,337 712,409 l 130,32 v 624 624 l -45,2 c -25,0 -72,-3 -105,-8 z"
       id="path2248"
       inkscape:connector-curvature="0" />
    <path
       d="m 3713,2560 c -179,-159 -396,-268 -648,-325 l -100,-22 V 1584 955 l 45,3 c 157,11 415,64 594,124 246,82 435,173 646,313 170,113 272,197 421,345 147,147 228,246 350,429 89,134 243,426 233,443 -3,4 -335,8 -739,8 h -734 z"
       id="path2250"
       inkscape:connector-curvature="0" />
  </g>
</svg>
