<svg xmlns="http://www.w3.org/2000/svg" version="2.0" viewBox="0 0.16 278.83 511.55">
	<path fill="#000000" d="
		M 0.00 337.44
		L 0.00 102.11
		L 104.70 102.10
		Q 105.10 102.10 105.20 101.72
		L 111.99 76.73
		A 0.90 0.90 0.0 0 0 111.69 75.80
		L 75.97 47.08
		Q 75.14 46.41 76.21 46.36
		L 122.09 44.09
		Q 122.59 44.06 122.77 43.59
		L 139.17 0.57
		Q 139.48 -0.25 139.80 0.57
		L 156.19 43.58
		Q 156.38 44.06 156.89 44.09
		L 202.79 46.36
		Q 203.82 46.41 203.01 47.06
		L 167.20 75.85
		Q 166.81 76.17 166.94 76.66
		L 173.70 101.49
		Q 173.87 102.09 174.48 102.09
		L 278.52 102.08
		Q 278.83 102.08 278.83 102.40
		Q 278.83 221.02 278.83 339.75
		Q 278.83 342.63 278.51 345.50
		Q 275.68 370.40 260.98 389.65
		Q 257.32 394.43 247.42 404.32
		Q 194.60 457.04 140.10 511.45
		Q 139.57 511.97 139.04 511.46
		Q 136.36 508.86 133.38 505.88
		Q 82.43 455.02 31.45 404.20
		Q 21.64 394.43 17.90 389.51
		Q 0.72 366.94 0.00 337.44
		Z
		M 148.57 55.20
		A 0.33 0.33 0.0 0 1 148.28 54.99
		L 139.80 32.48
		A 0.33 0.33 0.0 0 0 139.18 32.48
		L 130.70 54.99
		A 0.33 0.33 0.0 0 1 130.41 55.20
		L 106.38 56.31
		A 0.33 0.33 0.0 0 0 106.19 56.90
		L 124.98 71.91
		A 0.33 0.33 0.0 0 1 125.09 72.26
		L 118.72 95.45
		A 0.33 0.33 0.0 0 0 119.22 95.81
		L 139.31 82.59
		A 0.33 0.33 0.0 0 1 139.67 82.59
		L 159.76 95.81
		A 0.33 0.33 0.0 0 0 160.26 95.45
		L 153.89 72.26
		A 0.33 0.33 0.0 0 1 154.00 71.91
		L 172.79 56.90
		A 0.33 0.33 0.0 0 0 172.60 56.31
		L 148.57 55.20
		Z
		M 258.96 126.65
		A 0.63 0.63 0.0 0 0 258.33 126.02
		L 20.67 126.02
		A 0.63 0.63 0.0 0 0 20.04 126.65
		L 20.04 173.31
		A 0.63 0.63 0.0 0 0 20.67 173.94
		L 258.33 173.94
		A 0.63 0.63 0.0 0 0 258.96 173.31
		L 258.96 126.65
		Z
		M 187.38 367.76
		L 187.41 197.43
		A 0.18 0.17 -0.0 0 0 187.23 197.26
		L 20.27 197.26
		A 0.24 0.24 0.0 0 0 20.03 197.50
		Q 20.03 263.23 20.03 329.00
		Q 20.03 342.94 21.16 348.93
		C 24.10 364.67 31.33 375.82 42.79 387.21
		Q 55.19 399.56 67.36 411.76
		A 0.36 0.36 0.0 0 0 67.98 411.50
		L 67.96 317.50
		Q 67.96 316.89 68.57 316.89
		L 115.22 316.89
		A 0.62 0.62 0.0 0 0 115.84 316.27
		L 115.84 269.68
		Q 115.84 269.01 115.18 269.01
		L 68.49 269.01
		Q 67.97 269.01 67.97 268.49
		L 67.96 246.02
		Q 67.96 245.50 68.48 245.50
		L 138.75 245.50
		Q 139.25 245.50 139.25 246.00
		L 139.25 483.24
		Q 139.25 484.13 139.88 483.50
		Q 186.31 437.01 232.90 390.54
		Q 243.00 380.47 246.36 375.80
		Q 258.99 358.20 258.98 335.00
		Q 258.95 266.22 258.97 197.50
		A 0.24 0.24 0.0 0 0 258.73 197.26
		L 211.27 197.26
		A 0.24 0.24 0.0 0 0 211.03 197.50
		Q 211.03 252.22 211.03 306.99
		Q 211.03 321.13 210.12 326.95
		Q 206.34 350.99 187.63 367.87
		Q 187.38 368.09 187.38 367.76
		Z"
		/>
	<path fill="#ec1a39" d="
		M 148.57 55.20
		L 172.60 56.31
		A 0.33 0.33 0.0 0 1 172.79 56.90
		L 154.00 71.91
		A 0.33 0.33 0.0 0 0 153.89 72.26
		L 160.26 95.45
		A 0.33 0.33 0.0 0 1 159.76 95.81
		L 139.67 82.59
		A 0.33 0.33 0.0 0 0 139.31 82.59
		L 119.22 95.81
		A 0.33 0.33 0.0 0 1 118.72 95.45
		L 125.09 72.26
		A 0.33 0.33 0.0 0 0 124.98 71.91
		L 106.19 56.90
		A 0.33 0.33 0.0 0 1 106.38 56.31
		L 130.41 55.20
		A 0.33 0.33 0.0 0 0 130.70 54.99
		L 139.18 32.48
		A 0.33 0.33 0.0 0 1 139.80 32.48
		L 148.28 54.99
		A 0.33 0.33 0.0 0 0 148.57 55.20
		Z"
		/>
	<rect fill="#ffffff" x="20.04" y="126.02" width="238.92" height="47.92" rx="0.63"/>
	<path fill="#ffffff" d="
		M 187.38 367.76
		Q 187.38 368.09 187.63 367.87
		Q 206.34 350.99 210.12 326.95
		Q 211.03 321.13 211.03 306.99
		Q 211.03 252.22 211.03 197.50
		A 0.24 0.24 0.0 0 1 211.27 197.26
		L 258.73 197.26
		A 0.24 0.24 0.0 0 1 258.97 197.50
		Q 258.95 266.22 258.98 335.00
		Q 258.99 358.20 246.36 375.80
		Q 243.00 380.47 232.90 390.54
		Q 186.31 437.01 139.88 483.50
		Q 139.25 484.13 139.25 483.24
		L 139.25 246.00
		Q 139.25 245.50 138.75 245.50
		L 68.48 245.50
		Q 67.96 245.50 67.96 246.02
		L 67.97 268.49
		Q 67.97 269.01 68.49 269.01
		L 115.18 269.01
		Q 115.84 269.01 115.84 269.68
		L 115.84 316.27
		A 0.62 0.62 0.0 0 1 115.22 316.89
		L 68.57 316.89
		Q 67.96 316.89 67.96 317.50
		L 67.98 411.50
		A 0.36 0.36 0.0 0 1 67.36 411.76
		Q 55.19 399.56 42.79 387.21
		C 31.33 375.82 24.10 364.67 21.16 348.93
		Q 20.03 342.94 20.03 329.00
		Q 20.03 263.23 20.03 197.50
		A 0.24 0.24 0.0 0 1 20.27 197.26
		L 187.23 197.26
		A 0.18 0.17 -0.0 0 1 187.41 197.43
		L 187.38 367.76
		Z"
		/>
</svg>