<?xml version="1.0" encoding="UTF-8"?>
<svg id="Layer_1" data-name="Layer 1" xmlns="http://www.w3.org/2000/svg" viewBox="0 0 233.5 270.5">
  <path fill="#fff" d="M198.95,76.35l-6.2,3.6c-3.4,1.9-12.7,6.2-20.9,9.3-17.8,7.2-26.1,11.2-34.8,17-3.8,2.5-9.8,7.6-13.5,11.2l-6.9,6.6-5.5-5.7c-11.4-11.6-23.1-18.5-49.5-29.1-8.2-3.1-17.5-7.4-20.9-9.3l-6.2-3.6,7.1-.9c8.8-1,18.8-3.7,23.6-6.5,3.6-2.2,3.7-2.2,4.8,0,3.8,7,22.7,26,24.4,24.3.4-.3-2.6-4.2-6.4-8.8-7.9-9.2-15-22.7-17-32.2-1.6-7.8,0-18.1,4.1-26,2.4-5,5.8-8.9,6.5-7.9.2.2,2.8,3.1,5.7,6.3l5.3,5.8-2.2,3.7c-3.2,5-4.1,12.1-2.4,19,.8,3,1.6,5.6,1.8,5.6,1.9,0,10.6-5.5,17.8-11.2,4.7-3.7,8.8-6.8,9.1-6.8s4.4,3.1,9.1,6.8c4.7,3.8,10.6,7.8,13.1,9.1,5.4,2.7,5.9,2.2,7.1-6,.9-6.3,0-11.3-3-16.5l-2.2-3.7,2.6-2.5c1.4-1.3,3.9-4.2,5.6-6.3,2.9-3.7,3-3.8,5.2-1.9,3.6,3.2,8.1,14.7,8.8,22.4.5,5.8.2,8.6-2.3,15.9-3.6,10.7-7.2,17.2-14.7,26s-8.4,10.2-5.3,8.6c4.2-2.4,15.6-13.5,19.9-19.7l4.2-6.1,3.6,2.1c4.7,2.8,14.7,5.5,23.4,6.5l7.1.9Z"/>
  <path fill="#fff" d="M154.75,102.65c15.7-7.2,14.3-7.9,14.3,7,0,13.8-1.3,28.4-3.3,37.8-1.3,5.3-1.8,6.3-5.2,7.7-3.6,1.4-16.8,5-24.3,6.6-3.2.6-3.2.7-3.2,9.8v9.1l2.8-2.6c1.6-1.4,4.1-4.8,5.7-7.4,2.4-4.3,3.6-5,10.5-7.1,4.3-1.3,8.1-2.4,8.5-2.4,1.1,0-7.2,16-11.5,22-2.3,3.1-7.2,8.9-10.9,12.8-3.7,4-9.7,9.1-13.2,11.6l-6.5,4.4v-65.1l5.7-.7c3.3-.5,7.3-1.2,9.1-1.5l3.3-.7-2.5,6.1c-1.2,3.4-2.6,6.9-2.9,7.8-.9,2.8,3.9-3.5,7.2-9.4,1.7-3.1,5.3-7,8.4-9.3,5.6-4,7.8-7.7,9.3-15,.7-3.5.5-3.7-2.2-3-3.2.8-3.3.3-1.1-6.1.9-2.7,1.6-5,1.4-5.2-.1-.2-2.4,3.3-4.9,7.8-3,5.6-6.1,9.3-9.8,12-3.5,2.6-5.3,4.8-5.3,6.4,0,2.6-2.9,4-11.4,5.4l-4.3.7v-6.1q0-6,8.2-13.8c9.9-9.7,16.2-14.1,28.1-19.6Z"/>
  <path fill="#fff" d="M115.05,146.85v32c0,17.6-.3,31.9-.8,31.9s-4.3-2.6-8.5-5.8c-16.5-12.4-31.8-35.1-36.9-54.9-1.8-6.5-2.5-13.7-3-30.8-.6-21.5-.5-22.2,1.5-21.5,15.3,5.6,31.3,15.4,41.3,25.3,6.3,6.3,6.4,6.6,6.4,12.7,0,3.5-.2,6.3-.6,6.3-2.2,0-12.7-2.7-13.7-3.6-.8-.7-1.4-2-1.4-3.1,0-3.1-17.3-17-19-15.4-1.4,1.6,2.2,28.2,4.9,36.1,2.5,7.1,11.5,22.1,14.3,23.8.5.4.9-3.1.7-8.5l-.4-9.3-4.9-1.9c-2.7-1.1-5.3-2.7-5.8-3.6-.6-1.3-2-7-3.9-16.3l-.6-2.5,6.6,2.7c3.4,1.5,10.3,3.5,15.1,4.5l8.7,1.9Z"/>
  <path fill="#fff" d="M219.55,150.35l-7.7,11.3c-8.7,12.7-23.3,31.1-34,42.8l-7.2,7.8-6.5-8.6c-3.6-4.8-6.9-8.7-7.4-8.7s0,2.9.9,6.4l1.8,6.4-12.9,12.2-12.9,12.1,3.4,2.9c1.9,1.4,3.8,2.7,4.3,2.8,1.7,0-1.5,3.1-9.5,9.1l-7.8,5.7-3.2-2.3c-4-3-4.6-3-8-.1-1.6,1.2-3.1,2.2-3.4,2.2-.6,0-5.2-3.5-13.3-9.9l-4.8-3.8,3.9-3c2.3-1.5,4.1-3.3,3.9-4,0-.7-3-3.7-6.7-6.9-3.7-3-9.4-8.2-12.5-11.5l-5.9-5.8,1.8-6.3c1.1-3.5,1.4-6.2.9-6-1.2.5-8.6,9.6-10.9,13.4-1.1,1.8-2.2,3.3-2.7,3.3-2.4,0-29.1-32.3-41.8-50.7l-7.5-10.8,8.4-6.3c4.5-3.6,10-8.5,12.1-11.2,7.4-9,13.1-22.8,14-34.5.3-3.8.9-6.9,1.3-6.9s2.7.8,5.3,1.8l4.6,1.8.7,23.7c.9,28,2,34,9.8,49.8,6.1,12.3,13.6,22.8,23.5,32.9,6,6.1,17.9,15.1,22,16.7,2.6,1,17-9,25.3-17.6,14.1-14.4,25.3-33.1,29.5-49.3,1.8-6.8,2.4-13.7,2.9-32.5l.7-23.8,5-1.8c2.9-.9,5.3-1.7,5.6-1.7.2,0,.3,1.9.3,4.2,0,10.1,7,28.3,14.2,37.1,2.2,2.7,7.7,7.7,12.2,11.2l8.3,6.4Z"/>
  <path fill="#ef3d23" d="M151.85,125.65c1.6,1.6-3.9,9.3-8.4,11.8l-4.9,2.6.4-3.7c.3-3.4.8-3.9,4-4.2,2.7-.2,3.6-.9,3.6-2.5,0-2.1,4.1-5.3,5.3-4Z"/>
  <path d="M131.15,157.85c.3-.9,1.7-4.4,2.9-7.8l2.5-6.1-3.3.7c-1.8.3-5.8,1-9.1,1.5l-5.7.7v65.1l6.5-4.4c3.5-2.5,9.5-7.6,13.2-11.6,3.7-3.9,8.6-9.7,10.9-12.8,4.3-6,12.6-22,11.5-22-.4,0-4.2,1.1-8.5,2.4-6.9,2.1-8.1,2.8-10.5,7.1-1.6,2.6-4.1,6-5.7,7.4l-2.8,2.6v-9.1c0-9.1,0-9.2,3.2-9.8,7.5-1.6,20.7-5.2,24.3-6.6,3.4-1.4,3.9-2.4,5.2-7.7,2-9.4,3.3-24,3.3-37.8,0-14.9,1.4-14.2-14.3-7-11.9,5.5-18.2,9.9-28.1,19.6q-8.2,7.8-8.2,13.8v6.1l4.3-.7c8.5-1.4,11.4-2.8,11.4-5.4,0-1.6,1.8-3.8,5.3-6.4,3.7-2.7,6.8-6.4,9.8-12,2.5-4.5,4.8-8,4.9-7.8.2.2-.5,2.5-1.4,5.2-2.2,6.4-2.1,6.9,1.1,6.1,2.7-.7,2.9-.5,2.2,3-1.5,7.3-3.7,11-9.3,15-3.1,2.3-6.7,6.2-8.4,9.3-3.3,5.9-8.1,12.2-7.2,9.4ZM233.25,146.75c.1,2.5-18.2,29.5-30,44.2-20.8,26-41.8,46.2-70.4,67.8-8.6,6.3-15.9,11.6-16.3,11.5-.5,0-7.2-4.8-15-10.7-29.1-22.2-50.9-43-71.3-68.6C18.45,176.25.15,149.25.25,146.75c0-.4,4-3.6,8.6-6.9,16-11.6,23.7-22.2,27.7-37.4l2.2-9.2-3.1-2.2c-4.9-3.4-19.6-18.5-19.6-20.2,0-1,4.4-2.1,14-3.4,7.7-1.1,17.3-3,21.1-4.5l7.1-2.5.1-10.1c.1-16.3,5.2-29.8,14.8-40.2,4.4-4.7,12-9.9,14.2-9.9.4,0,2.2,2.9,4,6.4,5.1,10.3,9.8,15.8,16.1,19.5,7.5,4.3,11.1,4.3,18.6,0,6.3-3.7,11-9.2,16.1-19.4,1.8-3.6,3.6-6.5,4-6.5,2.2,0,9.8,5.2,14.2,9.9,9.6,10.4,14.7,23.9,14.8,40.2l.1,10.1,7.1,2.5c3.8,1.5,13.4,3.4,21.1,4.5,9.6,1.3,14,2.4,14,3.4,0,1.7-14.7,16.8-19.6,20.2l-3.1,2.2,2.2,9.2c4,15.2,11.8,25.8,27.7,37.4,4.6,3.3,8.6,6.5,8.6,6.9ZM211.85,161.65l7.7-11.3-8.3-6.4c-4.5-3.5-10-8.5-12.2-11.2-7.2-8.8-14.2-27-14.2-37.1,0-2.3-.1-4.2-.3-4.2-.3,0-2.7.8-5.6,1.7l-5,1.8-.7,23.8c-.5,18.8-1.1,25.7-2.9,32.5-4.2,16.2-15.4,34.9-29.5,49.3-8.3,8.6-22.7,18.6-25.3,17.6-4.1-1.6-16-10.6-22-16.7-9.9-10.1-17.4-20.6-23.5-32.9-7.8-15.8-8.9-21.8-9.8-49.8l-.7-23.7-4.6-1.8c-2.6-1-4.9-1.8-5.3-1.8s-1,3.1-1.3,6.9c-.9,11.7-6.6,25.5-14,34.5-2.1,2.7-7.6,7.6-12.1,11.2l-8.4,6.3,7.5,10.8c12.7,18.4,39.4,50.7,41.8,50.7.5,0,1.6-1.5,2.7-3.3,2.3-3.8,9.7-12.9,10.9-13.4.5-.2.2,2.5-.9,6l-1.8,6.3,5.9,5.8c3.1,3.3,8.8,8.5,12.5,11.5,3.7,3.2,6.7,6.2,6.7,6.9.2.7-1.6,2.5-3.9,4l-3.9,3,4.8,3.8c8.1,6.4,12.7,9.9,13.3,9.9.3,0,1.8-1,3.4-2.2,3.4-2.9,4-2.9,8,.1l3.2,2.3,7.8-5.7c8-6,11.2-9.1,9.5-9.1-.5-.1-2.4-1.4-4.3-2.8l-3.4-2.9,12.9-12.1,12.9-12.2-1.8-6.4c-.9-3.5-1.4-6.4-.9-6.4s3.8,3.9,7.4,8.7l6.5,8.6,7.2-7.8c10.7-11.7,25.3-30.1,34-42.8ZM192.75,79.95l6.2-3.6-7.1-.9c-8.7-1-18.7-3.7-23.4-6.5l-3.6-2.1-4.2,6.1c-4.3,6.2-15.7,17.3-19.9,19.7-3.1,1.6-2.2.2,5.3-8.6s11.1-15.3,14.7-26c2.5-7.3,2.8-10.1,2.3-15.9-.7-7.7-5.2-19.2-8.8-22.4-2.2-1.9-2.3-1.8-5.2,1.9-1.7,2.1-4.2,5-5.6,6.3l-2.6,2.5,2.2,3.7c3,5.2,3.9,10.2,3,16.5-1.2,8.2-1.7,8.7-7.1,6-2.5-1.3-8.4-5.3-13.1-9.1-4.7-3.7-8.8-6.8-9.1-6.8s-4.4,3.1-9.1,6.8c-7.2,5.7-15.9,11.2-17.8,11.2-.2,0-1-2.6-1.8-5.6-1.7-6.9-.8-14,2.4-19l2.2-3.7-5.3-5.8c-2.9-3.2-5.5-6.1-5.7-6.3-.7-1-4.1,2.9-6.5,7.9-4.1,7.9-5.7,18.2-4.1,26,2,9.5,9.1,23,17,32.2,3.8,4.6,6.8,8.5,6.4,8.8-1.7,1.7-20.6-17.3-24.4-24.3-1.1-2.2-1.2-2.2-4.8,0-4.8,2.8-14.8,5.5-23.6,6.5l-7.1.9,6.2,3.6c3.4,1.9,12.7,6.2,20.9,9.3,26.4,10.6,38.1,17.5,49.5,29.1l5.5,5.7,6.9-6.6c3.7-3.6,9.7-8.7,13.5-11.2,8.7-5.8,17-9.8,34.8-17,8.2-3.1,17.5-7.4,20.9-9.3ZM143.45,137.45c4.5-2.5,10-10.2,8.4-11.8-1.2-1.3-5.3,1.9-5.3,4,0,1.6-.9,2.3-3.6,2.5-3.2.3-3.7.8-4,4.2l-.4,3.7,4.9-2.6ZM115.05,178.85v-32l-8.7-1.9c-4.8-1-11.7-3-15.1-4.5l-6.6-2.7.6,2.5c1.9,9.3,3.3,15,3.9,16.3.5.9,3.1,2.5,5.8,3.6l4.9,1.9.4,9.3c.2,5.4-.2,8.9-.7,8.5-2.8-1.7-11.8-16.7-14.3-23.8-2.7-7.9-6.3-34.5-4.9-36.1,1.7-1.6,19,12.3,19,15.4,0,1.1.6,2.4,1.4,3.1,1,.9,11.5,3.6,13.7,3.6.4,0,.6-2.8.6-6.3,0-6.1-.1-6.4-6.4-12.7-10-9.9-26-19.7-41.3-25.3-2-.7-2.1,0-1.5,21.5.5,17.1,1.2,24.3,3,30.8,5.1,19.8,20.4,42.5,36.9,54.9,4.2,3.2,8,5.8,8.5,5.8s.8-14.3.8-31.9Z"/>
</svg>