<svg xmlns="http://www.w3.org/2000/svg" id="Layer_1" data-name="Layer 1" viewBox="0 0 207.17 124.3" style="&#10;">
  <defs>
    <style>
      .cls-21 {
        fill: #ec1f27;
      }

      .cls-22 {
        fill: #ed2931;
      }

      .cls-23 {
        fill: #ec1e26;
      }

      .cls-24 {
        fill: #ed2a31;
      }

      .cls-25 {
        fill: #1c4790;
      }

      .cls-26 {
        fill: #1d4790;
      }

      .cls-27 {
        fill: #1b4690;
      }

      .cls-28 {
        fill: #ec1e25;
      }

      .cls-29 {
        fill: #ec2027;
      }
    </style>
  </defs>
  
  <path class="cls-21" d="M0,43.62c1.38-6.21,5.66-9.66,11.98-10.01h47.69S69.8.16,69.8.16l66.36.04,13.25,33.39,45.61.02c6.15.02,11.31,4.46,11.99,10.6v70.17c-.65,5.31-5.08,9.38-10.36,9.92h-3.79c-.24-.23-.65-.28-.97-.32-15.04-1.95-30.87-2.62-46.04-3.29-43.45-1.93-87.48-1.84-130.72,3.29-.44.05-1.11.12-1.49.32h-4.48c-1.25-.5-2.43-.79-3.63-1.46-2.99-1.7-4.58-4.45-5.52-7.67V43.62ZM71.78,2.95l-10.01,33.52-51.32.08c-4.17.66-7.32,3.96-7.68,8.18v69.14c.36,4.29,4.24,7.73,8.55,7.68,3.43-.05,7.99-1.03,11.56-1.39,18.05-1.81,36.05-2.92,54.17-3.27,39.73-.76,79.54.33,119.02,4.66,4.29-.17,7.81-3.36,8.2-7.68V44.73c-.34-4.28-3.62-7.63-7.85-8.19l-48.74-.08-13.39-33.51h-62.48Z"/>
  <path class="cls-25" d="M41.74,101.54c-8.09.69-16.19,1.49-24.23,2.6-4.7-.16-7.38-3.04-7.49-7.71-.35-15.8.59-31.74.15-47.57.24-3.56,3.08-6.36,6.68-6.44.52-.01.9.17,1.34.17,5.78-.03,11.56,0,17.34,0l2.07,11.03-14.31.44c-.11.1-.52.47-.52.51v37.24c0,.52,1.47.45,1.82.44,1.29-.05,2.99-.22,4.29-.37.17-.02.58-.09.62-.27l.07-23.51,12.17-.51v33.96Z"/>
  <path class="cls-25" d="M128.08,42.41c2.58.27,4.86,2.15,5.22,4.79-.37,4.86.65,10.9.03,15.63-.13,1.02-.74,2.13-1.55,2.76-.52.4-1.12.52-1.54.96,1.93,0,3.49,1.84,3.63,3.7-.32,4.74.4,9.99,0,14.67-.1,1.19-.88,3.12-1.75,3.94-.56.53-3.14,1.65-3.86,1.65h-21.73l-.26-.26v-47.58l.26-.26h21.56ZM116.95,63.44h5.09c.27,0,1.12-.56,1.12-.95v-10.69c.14-.67-1.01-.94-1.46-.94h-4.74v12.59ZM122.56,70.86c-1.47-.32-4.01.23-5.61,0v11.21h5.78c.43,0,.57-.6.6-.95.23-2.11.21-6.84,0-8.98-.05-.51-.19-1.16-.78-1.29Z"/>
  <path class="cls-25" d="M80.17,42.46c3.95-.41,11.11-.34,15.14-.06,4.28.3,6.37,2.38,6.64,6.64.73,11.44-.56,23.65,0,35.17-.35,4.31-3.05,6.02-7.15,6.3-4.66.32-9.77-.1-14.47.14-3.98-.49-5.88-2.44-6.15-6.44l.03-36.19c.39-3.38,2.68-5.23,5.98-5.57ZM85.04,51.29v30.51l.26.26h5.35l.26-.26v-30.17c0-.13-.31-.48-.46-.57-.47-.27-4.16-.32-4.79-.2-.2.04-.56.26-.61.43Z"/>
  <path class="cls-25" d="M157.3,42.6l9.5,50.15-10.53-.76-1.04-6.11-7.41-.29-1.13,5.8-10.59-.18,9.56-48.45,11.64-.14ZM153.87,77.75l-2.33-17.24-2.5,17.24h4.83Z"/>
  <polygon class="cls-28" points="138.34 29.14 132.87 36.51 107.76 36.52 93.29 13.82 83.39 13.78 78.66 29.65 89.01 29.65 89.01 25.52 85.04 25.52 86.93 18.18 92.8 18.19 97.46 25.43 97.46 36.72 68.48 36.72 76.69 7.75 97.46 7.84 111.35 29.14 138.34 29.14"/>
  <polygon class="cls-27" points="185.78 42.58 185.78 91.98 198.2 93.44 196.12 104.81 172.84 101.97 172.84 42.58 185.78 42.58"/>
  <polygon class="cls-26" points="60.37 82.41 70.9 82.06 69.15 91.18 49.33 92.23 49.33 42.67 49.59 42.41 60.11 42.41 60.37 42.67 60.37 82.41"/>
  <path class="cls-25" d="M130.75,7.76c.12,2.54-1.15,5.13-3.5,6.24-.42.2-1.88.66-2.27.66h-10.09l2.33,3.45h13.2c.76,3.71-1.13,7.92-5.26,8.28l-12.74-.04-11.5-18.59h29.84Z"/>
  <path class="cls-21" d="M120.57,95.85l7.82-.11c1.44.14,2.36.76,2.53,2.26.24,2.17.02,5.32,0,7.59,0,.35.16.74.13,1-.07.75-.95,1.32-1.67,1.32l1.9,5.69h-4.14c-.68-1.54-.95-4-1.76-5.4-.23-.4-.35-.4-.66-.03v5.43h-4.14v-17.76ZM127.13,98.78h-2.41v5.95c.51.41,1.89.42,2.41,0v-5.95Z"/>
  <path class="cls-21" d="M105.18,95.55c1.12-.19,5.19-.19,6.3,0,.8.13,1.73.68,1.94,1.51-.08,4.34.39,9.07.08,13.36-.07,1.02-.21,2.41-1.37,2.77-.87.27-6.34.14-7.32-.12-.81-.21-1.29-.54-1.58-1.35l-.07-14.21c.15-1.09.96-1.78,2.01-1.96ZM109.19,110.16v-11.29c-.31-.5-2.24-.32-2.24.17v11.12h2.24Z"/>
  <path class="cls-28" d="M89.52,108.78v4.57l-.26.26h-3.88v-17.76c2.39-.03,4.78.04,7.17,0,.83-.01,1.22-.42,2.13.09.82.46.99,1.53,1.06,2.39.16,1.99.25,6.72-.02,8.61-.13.89-1.07,1.83-1.97,1.83h-4.23ZM91.77,105.85v-6.81c-.51-.41-1.89-.42-2.41,0v6.81h2.41Z"/>
  <path class="cls-21" d="M70.12,106.72c-.65-.14-.9-.88-.96-1.46-.15-1.63-.15-4.94.01-6.56.4-4.01,5.52-2.06,8.26-2.48l.53,3.26h-4.57l-.26.26v3.88h4.05c.06,0,.75.74.82.91.25.61.24,6.17.13,7.11-.17,1.47-1.01,2.34-2.5,2.5-.87.09-2.2.15-3.1.18-.5.01-2.39.1-2.6-.18l-.6-3.11c.85-.25,3.96.03,4.42-.33.34-.27.32-2.83.25-3.39-.03-.25-.02-.44-.27-.59-1.05-.15-2.66.21-3.62,0Z"/>
  <path class="cls-29" d="M155.33,107.23c-.68-.15-1.05-1.19-1.12-1.81-.17-1.54-.17-5.36,0-6.9.39-3.48,5.93-1.47,8.28-1.81l.69,3.45-5-.17v3.97h3.19c.74,0,1.52.73,1.63,1.48.2,1.43.19,5.95.02,7.41-.15,1.27-.98,1.71-2.15,1.81-1.74.16-3.89-.28-5.66-.35l-.64-3.11,4.49.17v-4.14c-1.07-.16-2.72.21-3.71,0Z"/>
  <polygon class="cls-21" points="53.65 96.89 61.23 96.55 61.93 99.99 57.79 100.16 57.79 104.47 61.06 104.3 61.06 107.32 60.8 107.58 57.79 107.58 57.79 111.54 61.93 111.37 61.22 114.8 53.65 115.34 53.65 96.89"/>
  <polygon class="cls-23" points="138.17 99.47 139.14 96.19 146.42 96.4 147.31 99.47 144.9 99.47 144.9 114.13 140.76 113.96 140.76 99.47 138.17 99.47"/>
  <path class="cls-22" d="M176.98,109.82v1.21c-3.45-.18-6.9-.63-10.35-.86v-1.04s10.35.69,10.35.69Z"/>
  <path class="cls-24" d="M49.33,107.06v1.21s-10.35.86-10.35.86c.02-.37-.15-1.04.28-1.18l10.07-.89Z"/>
</svg>