<?xml version="1.0" encoding="UTF-8"?>
<svg id="Layer_1" data-name="Layer 1" xmlns="http://www.w3.org/2000/svg" viewBox="0 0 287 240">
  <defs>
    <style>
      .cls-1 {
        fill: #c91633;
      }

      .cls-2 {
        fill: #f9e9ec;
      }

      .cls-3 {
        fill: #c91835;
      }

      .cls-4 {
        fill: #cb203c;
      }

      .cls-5 {
        fill: #c91734;
      }

      .cls-6 {
        fill: #faedef;
      }

      .cls-7 {
        fill: #c81432;
      }

      .cls-8 {
        fill: #ca1b38;
      }

      .cls-9 {
        fill: #c81532;
      }

      .cls-10 {
        fill: #fdfcfc;
      }
    </style>
  </defs>
  <path class="cls-10" d="M0,125V0h287v125l-33.71-44.79-13.3-.21,4,26h-25.5l-1.5-1.5v-50.5h36.5l24.5-48.99c-1.84-.34-2.98.18-4.57.93-11.63,5.45-24.66,18.33-36.39,24.61l-28.03.97-17.02,16.98v118.5l4.84-.16c2.91-5.12,16.47-36.53,19.83-37.67l65.89-.12,4.45-2.05v113H0v-5c5.85-.74,13.97,1.03,19.48-.02,1.54-.29,6.52-4.98,6.52-5.48v-26.5H4c2,8.19,9.01,4.83,14.56,6.94.26,3.25,1.83,17.93-1.2,18.92-7.64.13-12.07-1.18-17.36,5.14v-107c1.38,1.18,2.57,1.87,4.45,2.05,20.9,1.96,44.67-1.7,65.89.12,3.35,1.14,16.92,32.55,19.83,37.67l4.84.16V48.5l-17.02-16.98-28.03-.97C38.23,24.26,25.2,11.38,13.57,5.93c-1.59-.74-2.72-1.26-4.57-.93l24.5,48.99h36.5v50.5l-1.5,1.5h-25.5l4-26-13.3.21L0,125ZM107,129h55.5l17.3-17.7c-1.07-19.08,2.12-41.13.27-59.86-.17-1.75-.04-2.32-1.01-3.99-2.67-4.63-13.11-11.42-16.55-16.45h-55.5v21.5l1.5,1.5h46.5v52h-23l-4-26h-21v49ZM32,235h22.5c.39,0,5.04-4.83,5.3-5.7.66-2.23.53-19.41-.31-21.28-.22-.49-4.63-5.02-4.98-5.02h-22.5v32ZM108,203h-22.5c-.39,0-5.04,4.83-5.3,5.7-.66,2.23-.53,19.41.31,21.28.22.49,4.63,5.02,4.98,5.02h22.5v-19c-7.25-.43-11.55-.83-16,5.5l9,.49v7.01s-13.57-.94-13.57-.94c-.91-1.3-1.25-17.15,1.06-19.06h15c.36,0,3.62-3.84,4.49-4.51v-1.49ZM135.86,203.14h-12.72s-10.14,31.85-10.14,31.85l7.89-.1,1.72-5.95,14.5.64.93,5.37,7.95.04-10.14-31.86ZM151,203v32h7v-18c5.86,1.36,4.4,10.61,11.5,10.11,3.38-.23,4.26-10.25,8.5-10.11v18h7v-32c-2.07.38-6.24-.69-7.8.21-1.95,1.13-6.38,14.8-9.69,14.8-4.86-6.75-5.97-17.71-16.51-15.01ZM214,203h-23v6.01s6.36.13,6.36.13l1.5,1.5-.8,17.92-7.07.43v6.01h23.01v-6.01s-7,0-7,0v-20h7.01s0-6,0-6ZM220,203v32c8.56-3.13,8.68-9.9,8.01-18l12.19,17.79,8.8.21v-32c-8.56,3.13-8.68,9.9-8.01,18-7.94-5.72-8.69-20.98-20.99-18ZM282,203h-21.5c-.39,0-5.04,4.83-5.3,5.7-.66,2.23-.53,19.41.31,21.28.22.49,4.63,5.02,4.98,5.02h22.5v-19c-5.18.02-13.51-1.41-15.99,4.51-1.26,3,8.28.76,9,1.48l-.94,6.57h-12.13s-.5-18.63-.5-18.63c6.73-2.95,16.96,2.9,19.56-6.94Z"/>
  <path class="cls-9" d="M0,125l33.71-44.79,13.3-.21-4,26h25.5l1.5-1.5v-50.5h-36.5L9,5.01c1.84-.34,2.98.18,4.57.93,11.63,5.45,24.66,18.33,36.39,24.61l28.03.97,17.02,16.98v118.5l-4.84-.16c-2.91-5.12-16.47-36.53-19.83-37.67-21.21-1.81-44.99,1.84-65.89-.12-1.88-.18-3.07-.87-4.45-2.05v-2Z"/>
  <path class="cls-9" d="M287,127l-4.45,2.05-65.89.12c-3.35,1.14-16.92,32.55-19.83,37.67l-4.84.16V48.5l17.02-16.98,28.03-.97c11.73-6.29,24.76-19.16,36.39-24.61,1.59-.74,2.72-1.26,4.57-.93l-24.5,48.99h-36.5v50.5l1.5,1.5h25.5l-4-26,13.3.21,33.71,44.79v2Z"/>
  <path class="cls-1" d="M0,234c5.29-6.32,9.72-5.01,17.36-5.14,3.03-.99,1.47-15.67,1.2-18.92-5.55-2.11-12.57,1.26-14.56-6.94h22v26.5c0,.5-4.98,5.18-6.52,5.48-5.51,1.05-13.62-.72-19.48.02v-1Z"/>
  <path class="cls-7" d="M107,129v-49h21l4,26h23v-52h-46.5l-1.5-1.5v-21.5h55.5c3.45,5.03,13.89,11.81,16.55,16.45.96,1.67.83,2.24,1.01,3.99,1.85,18.73-1.34,40.78-.27,59.86l-17.3,17.7h-55.5Z"/>
  <path class="cls-1" d="M151,203c10.54-2.7,11.65,8.26,16.51,15.01,3.31,0,7.75-13.67,9.69-14.8,1.56-.91,5.72.16,7.8-.21v32h-7v-18c-4.24-.14-5.12,9.88-8.5,10.11-7.1.49-5.65-8.75-11.5-10.11v18h-7v-32Z"/>
  <path class="cls-4" d="M220,203c12.3-2.98,13.05,12.28,20.99,18-.67-8.1-.55-14.87,8.01-18v32l-8.8-.21-12.19-17.79c.67,8.1.55,14.87-8.01,18v-32Z"/>
  <path class="cls-5" d="M32,235v-32h22.5c.35,0,4.76,4.53,4.98,5.02.85,1.86.98,19.05.31,21.28-.26.87-4.91,5.7-5.3,5.7h-22.5ZM53,209l-13.56.94v18.13l13.56.94v-20Z"/>
  <path class="cls-5" d="M108,203v1.49c-.88.68-4.14,4.51-4.5,4.51h-15c-2.32,1.91-1.97,17.76-1.06,19.06l13.57.94v-7.01s-9-.49-9-.49c4.44-6.34,8.74-5.93,16-5.5v19h-22.5c-.35,0-4.76-4.53-4.98-5.02-.85-1.86-.98-19.05-.31-21.28.26-.87,4.91-5.7,5.3-5.7h22.5Z"/>
  <path class="cls-3" d="M282,203c-2.6,9.84-12.83,3.99-19.56,6.94l.5,18.63h12.13s.94-6.57.94-6.57c-.72-.73-10.26,1.52-9-1.48,2.48-5.92,10.81-4.49,15.99-4.51v19h-22.5c-.35,0-4.76-4.53-4.98-5.02-.85-1.86-.98-19.05-.31-21.28.26-.87,4.91-5.7,5.3-5.7h21.5Z"/>
  <path class="cls-8" d="M135.86,203.14l10.14,31.86-7.95-.04-.93-5.37-14.5-.64-1.72,5.95-7.89.1,10.14-31.85h12.72ZM130.92,210.07h-2.85l-3.08,12.93h9.01l-3.08-12.93Z"/>
  <polygon class="cls-3" points="214 203 214.01 209.01 207 209 207 229 214.01 228.99 214 235 191 235 190.99 228.99 198.06 228.56 198.86 210.64 197.36 209.14 190.99 209.01 191 203 214 203"/>
  <polygon class="cls-6" points="53 209 53 229 39.44 228.06 39.44 209.94 53 209"/>
  <polygon class="cls-2" points="130.92 210.07 134 223 125 223 128.08 210.07 130.92 210.07"/>
</svg>