<?xml version="1.0" encoding="UTF-8"?>
<svg id="_Шар_1" data-name="Шар 1" xmlns="http://www.w3.org/2000/svg" viewBox="0 0 916 1681.79">
  <path fill="#c4aa76" d="M691.23,195.46c-.76,14.55-2.24,29-4.34,43.35-1.96,15.36-7.87,32.72-22.94,39.73-8.92,3-20.32,2.19-26.52-5.72-9.97-12.07-6.82-28.71-6.01-43.07,1.62-11.35,2.77-22.8,3.34-34.29.57-10.83.67-21.65.19-32.48,0-.62,0-1.19-.05-1.81-.1-10.44-3.62-21.75-12.54-27.9-7.58-5.68-18.46-4.58-25.99.62-10.87,7.06-18.55,17.84-24.8,29.09-1,1.86-2.05,3.72-3,5.63-4.24,8.78-8.06,17.79-11.49,26.85-10.11,26.52-17.65,54.08-26.9,80.88-6.25,16.69-16.36,32.67-31.29,42.83-17.93,12.64-40.73,15.98-62.19,15.21-27.42-1.29-52.08-18.5-66.48-41.3-17.93-29-33.86-59.14-51.41-88.37-1.96-3.01-4.15-6.3-6.63-9.25-4.67-5.44-10.44-9.73-17.98-8.92-6.01.57-10.16,4.15-12.78,8.92-2.77,4.91-3.86,11.06-3.62,16.41.86,36.05,18.31,68.91,24.51,104.01,2.15,10.83-.91,24.42-11.83,29.33-6.68.91-13.64,1.76-20.27.05-9.68-3.72-14.69-13.74-19.03-22.46-15.17-36.25-24.56-74.73-29.43-113.65.14-4.58.19-9.11.14-13.69,0-10.87-.19-21.75.86-32.48.43-4.58,1.05-9.16,2.05-13.69,5.77-32.14,14.59-66.1,38.39-89.85,20.51-20.75,55.85-26.95,80.74-10.54,24.13,16.74,39.06,42.68,54.89,66.72,10.92,17.36,21.13,37.53,39.97,47.36,1.24.67,2.53,1.24,3.86,1.81,11.02,5.39,24.47,4.25,35.01-1.81,3.53-1.96,6.68-4.48,9.39-7.49,7.77-8.01,11.59-18.65,15.69-28.81,8.73-21.84,17.41-43.64,26.95-65.1,10.87-27.47,32.24-53.03,62-60.19,14.69-2.29,31-2.62,44.02,5.68,18.84,11.21,29.62,31.52,37.06,51.46,12.21,33.53,17.93,68.87,18.89,104.44.29,10.83.14,21.65-.43,32.48Z"/>
  <polygon fill="#c4aa76" points="916 162.98 916 1681.79 0 1681.79 0 162.98 198.11 162.98 198.11 195.46 34.43 195.46 34.43 1648.5 881.57 1648.5 881.57 195.46 715.98 195.46 715.98 162.98 916 162.98"/>
  <path fill="#c4aa76" d="M454.16,866.75l-316.24,127.67v255.38l316.24,127.67,316.24-127.67v-255.38l-316.24-127.67ZM686.75,1157.38l-232.59,87.66-232.64-88.47v-62.14l232.64-92.09,232.59,92.09v62.95Z"/>
  <polygon fill="#c4aa76" points="733.06 1417.54 776.27 1374.33 776.27 1547.21 137.92 1547.21 137.92 1374.33 182.66 1417.54 733.06 1417.54"/>
  <polygon fill="#c4aa76" points="516.92 668.07 516.92 683.91 776.89 783.77 776.89 918.31 456.78 793.5 137.92 918.31 137.92 783.77 394.55 686.05 394.55 673.56 137.92 673.56 137.92 495.19 184.47 540.83 392.69 540.83 392.69 495.19 517.49 495.19 517.49 538.73 733.34 538.73 776.89 495.19 776.89 668.07 516.92 668.07"/>
</svg>