<?xml version="1.0" encoding="UTF-8"?>
<svg id="_Шар_1" data-name="Шар 1" xmlns="http://www.w3.org/2000/svg" viewBox="0 0 1272 1341.42">
  <defs>
    <style>
      .cls-1 {
        fill: #ff198f;
      }
    </style>
  </defs>
  <path class="cls-1" d="M830.3,83.91h-388.61v1150.38l167.76,107.13v-737.01l53.09-33.73v769.73l167.76-107.31v-712.9h-88.36l88.36-56.12V83.91ZM662.54,372.69l-53.09,33.73v-153.86h53.09v120.13Z"/>
  <polygon class="cls-1" points="388.61 467.53 305.65 520.2 388.61 520.2 388.61 1200.38 220.85 1093.32 220.85 574.06 167.76 607.79 167.76 1059.41 0 952.28 0 83.91 167.76 83.91 167.76 406.25 220.85 372.51 220.85 83.91 388.61 83.91 388.61 467.53"/>
  <polygon class="cls-1" points="1051.15 83.91 967.3 167.76 883.39 83.91 967.3 0 1051.15 83.91"/>
  <polygon class="cls-1" points="1272 83.91 1188.15 167.76 1104.24 83.91 1188.15 0 1272 83.91"/>
  <polygon class="cls-1" points="1270.46 209.39 1270.46 951.51 1104.24 1057.86 1051.15 1091.77 883.39 1199.14 883.39 209.39 1051.15 209.39 1051.15 889.93 1104.24 856.2 1104.24 209.39 1270.46 209.39"/>
</svg>