<svg xmlns="http://www.w3.org/2000/svg" id="Layer_1" data-name="Layer 1" viewBox="0 0 400 400" style="&#10;"><script xmlns="" id="pphgdbgldlmicfdkhondlafkiomnelnk"/><script xmlns=""/><script xmlns=""/>  
  <path fill="#43b8f4" d="M163.01,29.01l-1.01,1.97c4.84.13,5.44,5.69,8.57,8.96,11.56,12.03,23.75,25.88,34.89,38.12,14.07,15.46,27.92,33.43,42.6,49.38.77.83,6.42,5.44,7.46,3.6l-.03-15.03c3.73,3.94,7.1,8.5,9.93,13.1,3.25,5.28,7.02,11.04,10.31,16.15,2.92,4.53.54,4.35,6.77,9.78,1.67,1.45,5.35,3.77,7.13,5.32,4.98,4.33,9.86,9.08,14.81,13.47l8.5-2.78c1.41,5.46,2.64,12.67,1.96,18.37-.63,5.3-5.15,15.43-7.47,19.86-.36.68.37,1.87-.85,2.8-6.84,1.6-10.77,6-18.59,2.9l1.69-3.95c3.18-2.56,6.68-4.51,2.26-8.5-3.3-2.98-6.47.72-10.44.54-2.88-.14-5.31-2.65-8.5-2.08.09-1.69,2.61-1.34,3.96-2.52,2.39-2.07,1.93-7.87.04-9.98-2.46-2.76-19.72-10.04-24.36-12.64-13.94-7.79-26.04-16.28-38.9-24.89-3.62-2.42-7.71-3.68-10.41-7.8-1.86-2.84-10.65-21.81-11.85-22.19l-2.5.7-1.14,9.18c-.94.57-2.46.56-3.24,1.26-8.18,7.31-17.45,14.08-25.8,20.62-.23.18-1.81-.43-3.12.34-2.66,1.56-5.33,6.35-5.73,9.38-1.04,7.92-.15,21.55,0,30.08.06,3.71,2.83,6.75-1.47,9.45l-6.95-6.03c-4.24-8.37-6.88-15.69-18.07-15.04-3.28.19-5.04,1.76-7.94,2.11-6.42.77-14.88-.19-21.53-.04l7.77-8.94c3.76-2.14,26.5-18.35,27.18-20.69.91-3.14-3.64-5.27-4.82-6.95-3.97-5.65-8.49-14.87-12.43-20.12-1.38-1.84-5.34-1.94-3.6-7.2l41.88-5.59c-3.54-2.04-4.09-5.7-6.93-9.05-1.67-1.97-9.42-8.26-11.56-9.43-12.3-6.66-24.94-13.2-37.18-19.37-3.02-1.52-5.41-6.27-9.3-6.67-.19-3.93,4.6-3.07,7.53-3.03,19.62.29,28.9,6.94,46.47,13.54,17.73,6.67,38.92,12.57,56.05,21.95,3.61,1.98,5.12,5.6,8.95,6.54-1.19-2.91-2.27-5.92-3.73-8.72-.76-1.47-3.12-5.53-4.06-6.99-5-7.76-16.44-8.71-24.09-12.9-1.4-.77-6.45-3.68-3.47-5.38l4.28-1.08c.88-7.2-4.68-12.56-6.65-18.69-.66-2.04-.21-4.58-.95-7.05-1.68-5.66-6.17-11.05-5.32-18.17h3ZM244.67,138.34c-1.01-.69-4.23-2.5-5.11-2.32-4.26.84.29,3.47.39,3.71,3.05,7.18,1.81,15.53,9.3,20.49l15.74,6.77c.85-5.88-.83-10.38-5.09-14.4-5.11-4.81-9.73-10.51-15.23-14.25Z"/>
  <path fill="#43b8f4" d="M87.64,130.33c1.46,1.97,2.54,5.06,4.05,7.41,1.84,2.86,6.04,5.27,5.28,10.21-4.4,2.67-16.37.79-18.9,4.62-.6.9-2.3,7.29-2.83,9.17-19.74,69.24,19.42,148.53,87.04,171.22l5.72,6.03-16.5,3.1c-12.94-1.68-28.85-.68-41.78-3.31-51.19-10.4-82.87-77.67-85.76-126.24-1.51-25.41,2.5-61.61,13.64-84.44,3.84-7.87,8.18-4.23,14.91-5.09,2.62-.33,4.87-1.74,7.07-1.93,6.22-.54,12.54.64,18.72-.92l9.34,10.18Z"/>
  <path fill="#43b8f4" d="M294.33,49.65c1.66,1.09,3.59,1.39,4.94,2.32,86.72,59.9,104.27,181.85,33.13,263.92-39.93,46.07-113.39,71.43-174.48,54.68-3.64-1-7.89-3.95-11.91-4.59l8.49-2.07c18.12,2.52,39.05,1.46,56.5-3.42,14.09-3.93,29.11-10.41,40.79-18.44,1.84-1.26,4.72-.51,6.2-4.58l-21.89-10.08-2.1-4.39c9.46,1.72,18.84,1.9,28.48.98,10.75-1.02,21.8-3.19,30.55-9.66,1.68-13.15.86-26.2-.03-39.33,6.49,2.15,12,6.59,18.1,9.39,2.85,1.31,14.02,6.01,16.17,5.6,1.9-.36,18.94-26.65,18.81-31.2,18.37-35.28,17.49-83.3.1-120.49-3.02-6.45-20.12-34.16-24.63-37.37s-2.69-.89-7.11-5.88c-3.57-4.03-16.42-14.53-21.1-16.9-3.59-1.82-5.41.32-5.25-3.67-5.29-2.53-13.03-4.7-18.03-7.05-1.21-.57-7.84-4.74-8.52-5.48-3.35-3.62-2.71-8.36-3.98-12.02-2.16-6.26-5.52-11.86-5.56-18.93,2.21-2.11,32.05,10.68,36.23,13.26,2.63,1.62,4.61,4.42,6.09,5.39Z"/>
  <path fill="#43b8f4" d="M189.72,154.33c.24.11.15,1.27,1.02,1.61,1.29.51,2.95-.33,4.84.98.32.22,3.25,4.31,3.25,4.59,0,.76-4.1,2.88-2.69,5.35,3.38,2.22,7.14,3.75,10.6,5.83,1.05.63,1.31,1.87,2.51,2.6,1.91,1.16,12.78,5.63,13.53,6.92,1.3,7.48-.15,19.22,2.29,26.02,1.65,4.62,3.6,11.35,5.39,15.75,2.62,6.46,4.09,12.01,10.82,15.22,9.04,4.31,10.15-3.86,18.71-5.21-1.2,2.89-1.7,8.13-2.72,10.68-.42,1.05-7.58,9.46.2,8.35.4-.06,3.6-5.05,6.52-4.03-.61,2.82-.66,6.35-1.48,9.01-2.53,8.24-10.47,17.51-18.53,20.47-10.76,3.95-22.46-3.49-32.51-7.49-.93-1.05,1.08-1.85,1.81-2.21,3.35-1.67,7.22-3.05,10.55-4.94,1.96-4.52-1.99-5.05-2.59-6.08-.26-.44-2.02-5.48-2.98-7.54-5.02-10.72-9.19-22.47-18.65-30.34-3.48-2.89-14.87-11.81-19.37-13.64-3.84-1.57-7.8-.91-11.33-2.9-1.3-12.26-1.83-25.87-.25-38.13,6.36-3.82,12.66-14.72,21.06-10.9Z"/>
  <path fill="#43b8f4" d="M189.99,295l1-2c-1.21,5.77,7.19,1.65,4.55,7.04-5.15,1.18-10.93,5.07-15.53,6.47-5.33,1.63-26.85,5.69-31.32,4.5-.98-.26-.96-2-1.75-2.43-8.66-4.74-12.75-8.86-19.25-15.23-2.22-2.18-6.95-3.96-6.73-7.78.1-1.72,4.69-9.31,6.03-11.08.78-1.03,2.49-1.52,3.39-2.61,4.27-5.18,8.28-11.48,14.96-13.74,3.75,1.63,5.11,6.46,7.21,8.78,5.97,6.61,16.21,15.74,23.55,20.45,4.3,2.77,9.85,4.19,13.88,7.61Z"/>
  <path fill="#43b8f4" d="M109.4,254.39c-1.73,2.12-3.08,4.55-4.91,6.61-1.7.43-4.7-5.21-5.38-6.61-5.32-10.94-9.88-28.21-11.01-40.01-.15-1.55-.4-3.18.08-4.7.2-.62,5-5.09,5.65-5.17,1.87-.24,4.12.73,6.56.43,3.64-.44,7.2-2.95,11.57-3.49,3.23-.4,8.61.41,12.3-.25,5.73,1.18,3.1,6.09,3.85,10.19.9,4.91,5.13,14.02,3.72,18.88-.59,2.02-9.4,8.53-11.38,10.68-3.5,3.79-7.73,9.38-11.04,13.44Z"/>
  <path fill="#43b8f4" d="M275.61,84.41c4.1,2.53,9.04,7.23,14.27,7.77l.13,2.84,1.81-.82c3.23,6.78,15.61,10.12,17.58,17.7,1.16,4.47-1.17,9.52-2.14,13.85s-.35,7.85-3.31,12.23c-2.17,1.63-20.18-13.01-23.4-15.02-3.56-6.68-4.39-13.53-6.54-20.47-1.95-6.29-5.18-11.95-5.95-19.02,2.5-1.8,5.26-.47,7.55.94Z"/>
  <path fill="#44b8f4" d="M234.85,58.18c.44.77-.7,3.73-.46,5.83.6,5.17,5,13.32,6.58,18.6,2.29,7.63,4.35,15.55,6.02,23.38-3.75.96-3.91-2.89-5.93-4.59-8.55-7.21-14.04-15.13-21.41-24.06-.83-1.01-3.1-1.24-3.52-3.04,1.17-4.78,1.69-48.3,5.36-48.28,6.2,7.83,5.59,21.67,10.26,29.74,1.05,1.81,2.92,2.13,3.09,2.42Z"/>
  <path fill="#45b8f4" d="M343,226c-2.24.5-1.62-.28-2.3-1.24-3.96-5.59-1.85-12.97-2.77-19.17-1.83-12.28-6.31-22.39-10.7-33.3-.71-1.77-2.76-2.51-3.2-4.8-1.96-10.2,5.34-15.76,5.99-25.48l5.47,8.01c7.27,15.61,11.5,42.42,10.14,59.31-.45,5.6-2.64,11-2.63,16.67Z"/>
  <path fill="#45b8f4" d="M138.92,36.07c-1.65,3.67,2.19,4.06,3.4,6.2,3.93,6.93,6.9,16.17,10.8,23.15,1.03,1.85,4.42,1.46,2.88,6.58-4.87.98-7.99-1.89-12.2-3.31-9.16-3.09-17.65-6.85-26.6-10.4-4.53-1.8-9.62-.98-13.2-5.8,7.1-3.17,14.59-.71,21.54-.46,10.48.37,5.54-11.67,10.94-16.97l2.43,1.01Z"/>
  <path fill="#46b9f4" d="M91.63,90.42c3.32,1.51,4.77,3.04,7.59,4.84,1.79,1.14,10.42,4.39,8.78,6.73-17.69,1.18-35.41,6.2-53,4,1.56-3.18,5.69-3.55,8.28-5.02,6.32-3.58,14.28-8.62,21.1-11.14,3.54-1.31,4.23-.8,7.26.58Z"/>
  <path fill="#45b8f4" d="M244.71,182.3c.64.39.89,2.04,1.88,2.57,5.36,2.86,12.22,4.4,16.4,9.63-.05,1.92-10.09,5.16-11.54,6.44s-5.1,9.02-6.44,11.35l-2.5.73c-4.31-4.53-2.73-9.47-3.54-14.48-.63-3.92-2.38-8.06-2.03-13.02.15-2.1.84-4.12,2.55-5.44,1.25,1.96,3.9,1.43,5.22,2.23Z"/>
  
</svg>
