<svg xmlns="http://www.w3.org/2000/svg" id="Layer_1" data-name="Layer 1" viewBox="0 0 456 218"><script xmlns="" id="pphgdbgldlmicfdkhondlafkiomnelnk"/><script xmlns=""/><script xmlns=""/>
  <defs>
    <style>
      .cls-46 {
        fill: #fff;
      }
    </style>
  </defs>
  
  <polygon points="354 37.01 228.5 159.04 106 39.01 228.49 109.93 354 37.01"/>
  <path d="M3,190L66.01,43l57.85,133.28c-2.64,3.33-15.53,17.22-19.74,13.6l-38.1-91.87-37.51,92H3Z"/>
  <path d="M454,190h-25.5l-37.51-92-38.1,91.88c-4.09,3.53-17.07-10.3-19.74-13.58l57.84-133.3,63.01,147Z"/>
  <polygon points="95.5 42 134.5 134 151.01 93 168.92 109.6 150.83 151.33 127.5 172.98 71 42 95.5 42"/>
  <polygon points="386 42 329.5 172.98 306.56 151.94 288.27 110.49 305.99 93 321.75 132.72 323.99 134 361.5 42 386 42"/>
  <polygon points="210 159.99 102 205.99 177.49 135.18 210 159.99"/>
  <polygon points="355 205.99 247 159.5 279.5 135.04 355 205.99"/>
  <polygon points="245.78 83.8 228.5 96.7 210.95 83.29 228.01 5.01 245.78 83.8"/>
  <polygon points="198 42 183.45 76.03 163.06 64.91 172 42 198 42"/>
  <polygon points="285 42 293.95 64.92 273.53 76.03 259.43 44.04 260.5 42 285 42"/>
</svg>