<svg id="logosandtypes_com" data-name="logosandtypes com" xmlns="http://www.w3.org/2000/svg" viewBox="0 0 150 150">
<defs><style>.cls-58{fill:none;}.cls-59{fill:#ffc629;}</style></defs>
<path class="cls-58" d="M0,.2H150v150H0Z" transform="translate(0 -0.2)"/><path d="M123.08,57.28a39.36,39.36,0,0,0,1-33.93c-3.46-7.93-9-13.65-14.9-15.19L106,7.3,86.7,62.23,75,44.06,63.35,62.23l-19.27-55-3.22.87C35,9.7,29.42,15.37,26,23.3a39.36,39.36,0,0,0,1,33.93c1.15,2.21,2.88,5.19,4.76,8.46H25.48l1.78,17.15,15.28,9.09L39.66,93.8l-1.54,23.74h9l3.46-16.39,1.83-.77,1,.15L75,137.34l21.33-36.81,1.2-.15,1.83.77,3.46,16.39h9.08L110.4,93.8l-2.89-1.87,15.28-9.09,1.78-17.15h-6.25C120.25,62.52,121.93,59.49,123.08,57.28ZM30.62,80.78l-1.2-11.44h2.35L35,78l5.29,3.51L45,89.33Zm17.93,6.49S34.9,64.63,30.09,55.64c-9.95-18.74.72-41.09,11.68-44l18.93,54ZM75,130.37,58.21,101.68,75,104.33l16.62-2.65Zm26.47-43.1L89.35,65.59l18.93-54c11,2.93,21.63,25.28,11.68,44C115.15,64.63,101.5,87.27,101.5,87.27Zm19.13-17.93-1.2,11.44-14.37,8.55,4.66-7.78L115,78l3.27-8.7Z" transform="translate(0 -0.2)"/><polygon class="cls-59" points="85.07 66.06 75.03 50.45 64.98 66.06 75.03 81.49 85.07 66.06"/><polygon class="cls-59" points="98.62 90.33 87.33 70.34 75.03 88.84 62.72 70.34 51.43 90.33 43.07 95.72 41.91 113.88 44.27 113.88 47.54 98.45 51.96 96.63 75.03 99.8 98.09 96.63 102.51 98.45 105.78 113.88 108.14 113.88 106.98 95.72 98.62 90.33"/>
</svg>