<?xml version="1.0" encoding="UTF-8"?>
<svg id="_Шар_1" data-name="Шар 1" xmlns="http://www.w3.org/2000/svg" viewBox="0 0 1232 1401.62">
  <path fill="#001538" d="M249.04,935.25c-28.37,22.31-65.07,48.96-106.57,75.35-18.43-34.19-31.87-71.88-41.65-114.11,55.47-19.49,105.58-41.46,143.31-60.04-.61,31.33.95,64.27,4.91,98.8Z"/>
  <path fill="#001538" d="M252.01,747.28c-44.58,11.35-104.44,23.57-169.16,30.99-3.31-36.78-5.33-76.34-6.59-119.13,73.22,8.45,143.39,9.29,194.63,7.27-7.92,25.43-14.35,52.35-18.88,80.87Z"/>
  <path fill="#001538" d="M268.84,1045.17c9.86,40.74,22.77,83.34,39.37,127.97-13.71-8.22-26.8-16.6-38.91-24.98-19.87-13.74-37.62-28.1-53.65-43.1,20.29-21.51,38.26-41.96,53.19-59.89Z"/>
  <path fill="#001538" d="M74.47,382.99c87.53,66.1,192.5,116.32,262.71,144.34-13.59,20.37-26.27,42.26-37.58,65.91-59.32-10.24-143.16-29.58-225.06-60.5-.04-17.21-.08-34.76-.08-52.85v-96.9Z"/>
  <path fill="#001538" d="M267.85,199.96c51.86,87.04,119.67,166,168.17,215.84-18.16,15.61-36.06,33.05-53.3,52.47-69.37-46.41-174.72-128-248.78-222.05l133.91-46.26Z"/>
  <path fill="#001538" d="M509.16,116.51c14.43,82.89,38.45,161.24,58.52,215.65-21.63,9.33-45.57,21.85-70.32,37.81v-.04c-32.71-51.82-75.39-128.92-107.41-212.19l119.21-41.23Z"/>
  <path fill="#001538" d="M812.92,495.11l48.24,32.17,22.58,26.8s-31.14,9.14-43.14-.69c-12.03-9.79-27.68-58.29-27.68-58.29Z"/>
  <polygon fill="#001538" points="1032.83 835.27 985.85 838.85 969.14 798.45 998.15 821.83 1032.83 835.27"/>
  <path fill="#001538" d="M1157.53,266.82v213.06c0,358.96-7.39,538.79-194.82,668.28l-202.74-257.88c-144.87-54.98-91.23-275.43-91.23-275.43-3.27,84.14,43.71,141.83,43.71,141.83l107.71,43.63s45.92,83.99,55.85,135.85c17.55,8.76,75.23,1.6,75.23,1.6l-51.02-81.86,105.85,59.66,72.23-85.1-143.04-277.29c-9.06-33.77.38-73.29.38-73.29-11.76-5.41-193.64-132.54-193.64-132.54,102.04-86.16,29.05-169.89,29.05-169.89-55.32,60.77-117,125.19-125.04,133.53-.19,0-.38.04-.53.04l.49-.15c-22.46-77.18-16.18-155.72,3.77-219.61l507.79,175.56Z"/>
  <path fill="#001538" d="M1221.95,208.84L620.87,1.68l-4.87-1.68-4.84,1.68L10.05,208.84l-10.05,3.46v246.45c0,404.27,9.48,605.11,222.7,752,137.94,95.07,377.96,185.15,388.13,188.92l5.22,1.94,5.18-1.94c10.17-3.77,250.11-93.85,388.09-188.92,213.21-146.89,222.7-347.73,222.7-752v-246.45l-10.05-3.46ZM712.44,756.68l107.71,43.63s45.92,83.99,55.85,135.85c17.55,8.76,75.23,1.6,75.23,1.6l-51.02-81.86,105.85,59.66,72.23-85.1-143.04-277.29c-9.06-33.77.38-73.29.38-73.29-11.76-5.41-193.64-132.54-193.64-132.54,102.04-86.16,29.05-169.89,29.05-169.89-55.32,60.77-117,125.19-125.04,133.53-.19,0-.38.04-.53.04l.49-.15c-22.46-77.18-16.18-155.72,3.77-219.61l507.79,175.56v213.06c0,358.96-7.39,538.79-194.82,668.28l-202.74-257.88c-144.87-54.98-91.23-275.43-91.23-275.43-3.27,84.14,43.71,141.83,43.71,141.83ZM812.92,495.11l48.24,32.17,22.58,26.8s-31.14,9.14-43.14-.69c-12.03-9.79-27.68-58.29-27.68-58.29ZM969.14,798.45l29.01,23.38,34.69,13.44-46.98,3.58-16.71-40.4ZM389.95,157.74l119.21-41.23c14.43,82.89,38.45,161.24,58.52,215.65-21.63,9.33-45.57,21.85-70.32,37.81v-.04c-32.71-51.82-75.39-128.92-107.41-212.19ZM244.13,836.45c-.61,31.33.95,64.27,4.91,98.8-28.37,22.31-65.07,48.96-106.57,75.35-18.43-34.19-31.87-71.88-41.65-114.11,55.47-19.49,105.58-41.46,143.31-60.04ZM82.85,778.27c-3.31-36.78-5.33-76.34-6.59-119.13,73.22,8.45,143.39,9.29,194.63,7.27-7.92,25.43-14.35,52.35-18.88,80.87-44.58,11.35-104.44,23.57-169.16,30.99ZM268.84,1045.17c9.86,40.74,22.77,83.34,39.37,127.97-13.71-8.22-26.8-16.6-38.91-24.98-19.87-13.74-37.62-28.1-53.65-43.1,20.29-21.51,38.26-41.96,53.19-59.89ZM299.6,593.23c-59.32-10.24-143.16-29.58-225.06-60.5-.04-17.21-.08-34.76-.08-52.85v-96.9c87.53,66.1,192.5,116.32,262.71,144.34-13.59,20.37-26.27,42.26-37.58,65.91ZM133.94,246.22l133.91-46.26c51.86,87.04,119.67,166,168.17,215.84-18.16,15.61-36.06,33.05-53.3,52.47-69.37-46.41-174.72-128-248.78-222.05Z"/>
  <path fill="#fff" d="M249.04,935.25c-28.37,22.31-65.07,48.96-106.57,75.35-18.43-34.19-31.87-71.88-41.65-114.11,55.47-19.49,105.58-41.46,143.31-60.04-.61,31.33.95,64.27,4.91,98.8Z"/>
  <path fill="#fff" d="M337.18,527.33c-13.59,20.37-26.27,42.26-37.58,65.91-59.32-10.24-143.16-29.58-225.06-60.5-.04-17.21-.08-34.76-.08-52.85v-96.9c87.53,66.1,192.5,116.32,262.71,144.34Z"/>
  <path fill="#fff" d="M436.02,415.81c-18.16,15.61-36.06,33.05-53.3,52.47-69.37-46.41-174.72-128-248.78-222.05l133.91-46.26c51.86,87.04,119.67,166,168.17,215.84Z"/>
  <path fill="#fff" d="M497.36,369.97v-.04c-32.71-51.82-75.39-128.92-107.41-212.19l119.21-41.23c14.43,82.89,38.45,161.24,58.52,215.65-21.63,9.33-45.57,21.85-70.32,37.81Z"/>
  <path fill="#fff" d="M270.9,666.41c-7.92,25.43-14.35,52.35-18.88,80.87-44.58,11.35-104.44,23.57-169.16,30.99-3.31-36.78-5.33-76.34-6.59-119.13,73.22,8.45,143.39,9.29,194.63,7.27Z"/>
  <path fill="#fff" d="M308.21,1173.14c-13.71-8.22-26.8-16.6-38.91-24.98-19.87-13.74-37.62-28.1-53.65-43.1,20.29-21.51,38.26-41.96,53.19-59.89,9.86,40.74,22.77,83.34,39.37,127.97Z"/>
  <path fill="#fff" d="M883.74,554.09s-31.14,9.14-43.14-.69c-12.03-9.79-27.68-58.29-27.68-58.29l48.24,32.17,22.58,26.8Z"/>
  <polygon fill="#fff" points="1032.83 835.27 985.85 838.85 969.14 798.45 998.15 821.83 1032.83 835.27"/>
  <path fill="#fff" d="M1157.53,266.82v213.06c0,358.96-7.39,538.79-194.82,668.28l-202.74-257.88c-144.87-54.98-91.23-275.43-91.23-275.43-3.27,84.14,43.71,141.83,43.71,141.83l107.71,43.63s45.92,83.99,55.85,135.85c17.55,8.76,75.23,1.6,75.23,1.6l-51.02-81.86,105.85,59.66,72.23-85.1-143.04-277.29c-9.06-33.77.38-73.29.38-73.29-11.76-5.41-193.64-132.54-193.64-132.54,102.04-86.16,29.05-169.89,29.05-169.89-55.32,60.77-117,125.19-125.04,133.53-.19,0-.38.04-.53.04l.49-.15c-22.46-77.18-16.18-155.72,3.77-219.61l507.79,175.56Z"/>
</svg>