<svg xmlns="http://www.w3.org/2000/svg" id="Layer_1" data-name="Layer 1" viewBox="0 0 167.64 211.6">
  <defs>
    <style>
      .cls-1 {
        fill: #fefefe;
      }

      .cls-2 {
        fill: #727376;
      }

      .cls-3 {
        fill: #f8f8f8;
      }

      .cls-4 {
        fill: #fbfbfb;
      }

      .cls-5 {
        fill: #fdfdfd;
      }

      .cls-6 {
        fill: #272425;
      }

      .cls-7 {
        fill: #f8f8f9;
      }

      .cls-8 {
        fill: #464647;
      }

      .cls-9 {
        fill: #fbfcfc;
      }
    </style>
  </defs>
  <path class="cls-6" d="M167.64,81.49v3.99c-.43.78-.23,2.09-.23,3.05,0,1.87-.02,3.76,0,5.64,0,.59-.18,1.49.23,1.88v3.52c-.25.66-.41,1.76-.47,2.47-.94,12.25-2.36,23.29-6.04,35.05-11.27,36.02-42.83,61-76.84,74.5h-.94c-9.78-4.05-19.27-8.71-28.15-14.46C24.19,177.07,6.48,151.04,1.68,113.99-2.47,81.97,2.29,48.25,11.3,17.52c11.99-6.18,25.46-10.58,38.67-13.46,34.16-7.44,72.39-3.31,103.9,11.94.86.42,2.49,1.01,2.85,1.84,1.55,3.52,2.83,10.15,3.76,14.09,3.57,15.24,5.95,30.96,6.69,46.62l.25,2.57.22.37ZM119.51,144.67c7.36-8.18,14.26-16.89,20.2-26.18.58-.9,2.6-3.75,2.76-4.52.23-1.09-.08-3.85-.18-5.11-1.91-22.86-14.5-57.85-26.02-77.78-6.17-10.67-20.6-27.3-34.37-25.38-23.31,3.26-37.01,37.07-44.26,56.24-6.25,16.53-11.62,34.5-12.21,52.26,6.29,9.78,12.89,19.5,20.72,28.12.3.33,2.76,2.52,2.47,2.81-.99-.26-1.91-1.02-2.75-1.59-9.64-6.56-18.77-14.67-25.81-23.98l-4.98,1.77c2.2,15.77,10.31,30.41,20.4,42.47.89,1.06,6.14,7.06,6.93,7.18,6.57-1.62,17.72-6.63,17.69-14.66s-10.36-20.48-14.63-27.17c-1.7-2.66-7.51-11.87-7.13-14.6.27-1.92,1.72-5.7,2.37-7.75,5.35-16.7,18.42-48.9,36.03-55.32,21.57-7.86,36.66,21.3,43.54,37.12,3.72,8.56,6.69,17.44,9.3,26.4-3.68,11.93-13.23,21.1-18.86,32s-2.36,16.98,8.49,21.81c1.1.49,5.61,2.36,6.49,2.11.5-.15,4.43-4.49,5.09-5.25,10.93-12.47,19.57-27.74,22.05-44.35-.58-.48-4.73-1.95-5.14-1.69-6.08,8.13-13.82,15.24-22,21.22-1.31.96-3.77,2.98-5.11,3.58-.37.17-.65.29-1.07.22ZM146.45,25.89c-7.86-3.51-16.1-6.06-24.49-8.03l-.34.34c12.59,20.18,22.03,42.08,28.1,65.13l5.23,22.6c1.29-20.26-.7-40.9-4.3-60.87-1.16-6.43-2.52-12.86-4.2-19.16ZM46.02,18.09c-.55-.53-13.04,3.34-14.74,3.93-2.67.92-5.93,2.05-8.43,3.31-.53.27-1.28.49-1.55,1.04-2.45,10.18-4.54,20.48-6.01,30.86-1.86,13.14-2.8,26.19-2.61,39.41.04,2.95-.14,5.89.23,8.82l2.69-12.21c5.1-21.81,12.4-42.49,23.09-62.16,2.07-3.81,5.43-8.43,7.1-12.16.12-.28.32-.46.22-.83ZM77.24,97.47c-5.37-3.16-11.14-9.4-17.83-5.74.73,1.48,2.17,5.01,3.75,5.63,4.61.81,9.31.53,13.97.58l.12-.47ZM108.23,91.37c-6.83-2.65-12.79,2.7-17.83,6.56,3-.11,6.05.15,9.05.01,1.23-.06,4.26-.22,5.28-.59,1.17-.42,3.97-5.45,3.5-5.99Z"/>
</svg>