<?xml version="1.0" encoding="UTF-8"?>
<svg id="Layer_1" data-name="Layer 1" xmlns="http://www.w3.org/2000/svg" viewBox="0 0 167.97 211.63">
  <path fill="#fff" d="M59.49,91.52c6.69-3.66,12.46,2.58,17.83,5.74h.01l-.12.47c-4.66-.05-9.36.23-13.97-.58-1.58-.62-3.02-4.15-3.75-5.63Z"/>
  <path fill="#fff" d="M108.31,91.16c.44.58-2.34,5.56-3.5,5.98-1.02.37-4.05.53-5.28.59-3,.14-6.05-.12-9.05-.01,5.04-3.86,11-9.21,17.83-6.56Z"/>
  <path fill="#fff" d="M150.73,44.85c3.6,19.97,5.59,40.61,4.3,60.87l-5.23-22.6c-6.07-23.05-15.51-44.95-28.1-65.13l.34-.34c8.39,1.97,16.63,4.52,24.49,8.03h0c1.68,6.31,3.04,12.74,4.2,19.17Z"/>
  <path fill="#fff" d="M119.61,144.44c.41.07.69-.05,1.06-.22,1.34-.6,3.8-2.62,5.11-3.58,8.18-5.98,15.92-13.09,22-21.22.41-.26,4.56,1.21,5.14,1.69-2.48,16.61-11.12,31.88-22.05,44.35-.66.76-4.59,5.1-5.09,5.25-.88.25-5.39-1.62-6.49-2.11-10.85-4.83-14.12-10.91-8.49-21.81,5.63-10.9,15.18-20.07,18.86-32-2.61-8.96-5.58-17.84-9.3-26.4-6.88-15.82-21.97-44.98-43.54-37.12-17.61,6.42-30.68,38.62-36.03,55.32-.65,2.05-2.1,5.83-2.37,7.75-.38,2.73,5.43,11.94,7.13,14.6,4.27,6.69,14.6,19.14,14.63,27.17s-11.12,13.04-17.69,14.66c-.79-.12-6.04-6.12-6.93-7.18-10.09-12.06-18.2-26.7-20.4-42.47l4.98-1.77c7.04,9.31,16.17,17.42,25.81,23.98.84.57,1.76,1.33,2.75,1.59.29-.29-2.17-2.48-2.47-2.81-7.83-8.62-14.43-18.34-20.72-28.12.59-17.76,5.96-35.73,12.21-52.26,7.25-19.17,20.95-52.98,44.26-56.24,13.77-1.92,28.2,14.71,34.37,25.38,11.52,19.93,24.11,54.92,26.02,77.78.1,1.26.41,4.02.18,5.11-.16.77-2.18,3.62-2.76,4.52-5.94,9.28-12.83,17.99-20.18,26.16Z"/>
  <path fill="#fff" d="M31.36,21.81c1.7-.59,14.19-4.46,14.74-3.93h-.01c.1.38-.1.56-.22.84-1.67,3.73-5.03,8.35-7.1,12.16-10.69,19.67-17.99,40.35-23.09,62.16l-2.69,12.21c-.37-2.93-.19-5.87-.23-8.82-.19-13.22.75-26.27,2.61-39.41,1.47-10.38,3.56-20.68,6.01-30.86.27-.55,1.02-.77,1.55-1.04,2.5-1.26,5.76-2.39,8.43-3.31Z"/>
  <path d="M108.31,91.16c-6.83-2.65-12.79,2.7-17.83,6.56,3-.11,6.05.15,9.05.01,1.23-.06,4.26-.22,5.28-.59,1.16-.42,3.94-5.4,3.5-5.98ZM125.78,140.64c-1.31.96-3.77,2.98-5.11,3.58-.37.17-.65.29-1.06.22,7.35-8.17,14.24-16.88,20.18-26.16.58-.9,2.6-3.75,2.76-4.52.23-1.09-.08-3.85-.18-5.11-1.91-22.86-14.5-57.85-26.02-77.78-6.17-10.67-20.6-27.3-34.37-25.38-23.31,3.26-37.01,37.07-44.26,56.24-6.25,16.53-11.62,34.5-12.21,52.26,6.29,9.78,12.89,19.5,20.72,28.12.3.33,2.76,2.52,2.47,2.81-.99-.26-1.91-1.02-2.75-1.59-9.64-6.56-18.77-14.67-25.81-23.98l-4.98,1.77c2.2,15.77,10.31,30.41,20.4,42.47.89,1.06,6.14,7.06,6.93,7.18,6.57-1.62,17.72-6.63,17.69-14.66s-10.36-20.48-14.63-27.17c-1.7-2.66-7.51-11.87-7.13-14.6.27-1.92,1.72-5.7,2.37-7.75,5.35-16.7,18.42-48.9,36.03-55.32,21.57-7.86,36.66,21.3,43.54,37.12,3.72,8.56,6.69,17.44,9.3,26.4-3.68,11.93-13.23,21.1-18.86,32-5.63,10.9-2.36,16.98,8.49,21.81,1.1.49,5.61,2.36,6.49,2.11.5-.15,4.43-4.49,5.09-5.25,10.93-12.47,19.57-27.74,22.05-44.35-.58-.48-4.73-1.95-5.14-1.69-6.08,8.13-13.82,15.24-22,21.22ZM167.72,95.84v3.52c-.25.66-.41,1.76-.47,2.47-.94,12.25-2.36,23.29-6.04,35.05-11.27,36.02-42.83,61-76.84,74.5h-.94c-9.78-4.05-19.27-8.71-28.15-14.46C24.27,176.86,6.56,150.83,1.76,113.78-2.39,81.76,2.37,48.04,11.38,17.31c11.99-6.18,25.46-10.58,38.67-13.46C84.21-3.59,122.44.54,153.95,15.79c.86.42,2.49,1.01,2.85,1.84,1.55,3.52,2.83,10.15,3.76,14.09,3.57,15.24,5.95,30.96,6.69,46.62l.25,2.57.22.37v3.99c-.43.78-.23,2.09-.23,3.05,0,1.87-.02,3.76,0,5.64,0,.59-.18,1.49.23,1.88ZM155.03,105.72c1.29-20.26-.7-40.9-4.3-60.87-1.16-6.43-2.52-12.86-4.2-19.16h0c-7.86-3.52-16.1-6.07-24.49-8.04l-.34.34c12.59,20.18,22.03,42.08,28.1,65.13l5.23,22.6ZM77.21,97.73l.12-.47h-.01c-5.37-3.16-11.14-9.4-17.83-5.74.73,1.48,2.17,5.01,3.75,5.63,4.61.81,9.31.53,13.97.58ZM45.87,18.72c.12-.28.32-.46.22-.83h.01c-.55-.54-13.04,3.33-14.74,3.92-2.67.92-5.93,2.05-8.43,3.31-.53.27-1.28.49-1.55,1.04-2.45,10.18-4.54,20.48-6.01,30.86-1.86,13.14-2.8,26.19-2.61,39.41.04,2.95-.14,5.89.23,8.82l2.69-12.21c5.1-21.81,12.4-42.49,23.09-62.16,2.07-3.81,5.43-8.43,7.1-12.16Z"/>
</svg>