<?xml version="1.0" encoding="UTF-8"?>
<svg id="logosandtypes_com" data-name="logosandtypes com" xmlns="http://www.w3.org/2000/svg" viewBox="0 0 150.5 150.5">
  <polygon fill="#fff" points="120.85 69.39 119.65 80.83 105.28 89.38 109.94 81.6 115.25 78.05 118.52 69.35 120.85 69.39"/>
  <path fill="#fff" d="M108.53,11.64c11,2.93,21.63,25.28,11.68,44-4.81,9.04-18.46,31.68-18.46,31.68h-.03l-12.12-21.68,18.93-54Z"/>
  <polygon fill="#fff" points="91.87 101.73 75.25 130.42 58.46 101.73 75.25 104.38 91.87 101.73"/>
  <polygon fill="#fff" points="40.54 81.56 45.25 89.38 30.87 80.83 29.67 69.39 32.02 69.39 35.25 78.05 40.54 81.56"/>
  <path fill="#fff" d="M42.02,11.69l18.93,54-12.15,21.63s-13.65-22.64-18.46-31.63c-9.95-18.74.72-41.09,11.68-44Z"/>
  <path d="M124.82,65.74l-1.78,17.15-15.28,9.09,2.89,1.87,1.5,23.74h-9.08l-3.46-16.39-1.83-.77-1.2.15-21.33,36.81-21.59-36.81-1-.15-1.83.77-3.46,16.39h-9l1.54-23.74,2.88-1.87-15.28-9.09-1.78-17.15h6.28c-1.88-3.27-3.61-6.25-4.76-8.46-5.44-10.58-5.81-23.05-1-33.93,3.42-7.93,9-13.6,14.86-15.2l3.22-.87,19.27,55,11.65-18.17,11.7,18.17L106.25,7.35l3.18.86c5.9,1.54,11.44,7.26,14.9,15.19,4.81,10.88,4.44,23.35-1,33.93-1.15,2.21-2.83,5.24-4.76,8.41h6.25ZM119.65,80.83l1.2-11.44-2.33-.04-3.27,8.7-5.31,3.55-4.66,7.78,14.37-8.55ZM120.21,55.64c9.95-18.72-.68-41.07-11.68-44l-18.93,54,12.12,21.68h.03s13.65-22.64,18.46-31.68ZM108.39,114.13l-1.16-18.16-8.36-5.39-11.29-19.99-12.3,18.5-12.31-18.5-11.29,19.99-8.36,5.39-1.16,18.16h2.36l3.27-15.43,4.42-1.82,23.07,3.17,23.06-3.17,4.42,1.82,3.27,15.43h2.36ZM75.25,130.42l16.62-28.69-16.62,2.65-16.79-2.65,16.79,28.69ZM85.32,66.31l-10.04-15.61-10.05,15.61,10.05,15.43,10.04-15.43ZM60.95,65.69L42.02,11.69c-10.96,2.91-21.63,25.26-11.68,44,4.81,8.99,18.46,31.63,18.46,31.63l12.15-21.63ZM45.25,89.38l-4.71-7.82-5.29-3.51-3.23-8.66h-2.35l1.2,11.44,14.38,8.55Z"/>
  <polygon fill="#ffc629" points="107.23 95.97 108.39 114.13 106.03 114.13 102.76 98.7 98.34 96.88 75.28 100.05 52.21 96.88 47.79 98.7 44.52 114.13 42.16 114.13 43.32 95.97 51.68 90.58 62.97 70.59 75.28 89.09 87.58 70.59 98.87 90.58 107.23 95.97"/>
  <polygon fill="#ffc629" points="75.28 50.7 85.32 66.31 75.28 81.74 65.23 66.31 75.28 50.7"/>
</svg>