<svg xmlns="http://www.w3.org/2000/svg" id="Layer_1" data-name="Layer 1" viewBox="0 0 48 48">  
  <path fill="#dc3525" d="M21.97,0c.12.3.45.24.72.24s.6.07.72-.24h1.43c.12.3.45.24.72.24s.6.07.72-.24h.96c4.9,1.01,9.3,2.81,13.02,6.2,4.27,3.89,6.65,8.95,7.75,14.57v.96c-.3.12-.24.45-.24.72,0,.31-.11.79.24.96v.96c-.35.16-.24.64-.24.96,0,.26-.07.6.24.72v1.19c-.82,2.79-1.43,5.45-2.82,8.04-.5.93-2.68,4.32-3.45,4.68-.22.1-.4.22-.64.07l-.45-.92c8.34-9.24,7.72-23.6-1.59-31.92C27.71-2.96,9.6,1.08,3.62,14.96c-7.27,16.84,7.48,34.58,25.33,30.82,1.81-.38,3.4-1.35,5.21-1.36-.02.33.07.73-.03,1.04-.27.81-6.42,2.17-7.52,2.27C3.01,49.8-9.29,21.13,9.31,5.37,12.67,2.53,16.52.97,20.78,0h1.19Z"/>
  
  <path fill="#e05042" d="M48,23.4c-.35-.16-.24-.64-.24-.96h.24v.96Z"/>
  <path fill="#e05042" d="M48,25.31h-.24c0-.31-.11-.79.24-.96v.96Z"/>
  <path fill="#e87d72" d="M22.69,0v.24c-.26,0-.6.07-.72-.24h.72Z"/>
  <path fill="#e04e40" d="M23.4,0c-.12.3-.45.24-.72.24v-.24h.72Z"/>
  <path fill="#e04e40" d="M25.55,0v.24c-.26,0-.6.07-.72-.24h.72Z"/>
  <path fill="#e87d72" d="M26.27,0c-.12.3-.45.24-.72.24v-.24h.72Z"/>
  <path fill="#e87d72" d="M48,22.45h-.24c0-.26-.07-.6.24-.72v.72Z"/>
  <path fill="#e87d72" d="M48,26.03c-.31-.12-.23-.45-.24-.72h.24v.72Z"/>
  <path fill="#db3120" d="M22.64,4.37c9.24-.77,18.23,5.83,20.42,14.78,4.17,16.98-14.24,30.59-29.19,21.31C-2.16,30.51,3.85,5.94,22.64,4.37ZM36.3,15.52c-.1-.65.43-1.25.13-1.9-.2-.44-2.25-2.12-2.77-2.49-5-3.6-12.49-4.67-18.37-3-.7.66,2.29.55,1.91,1.43-5.87-1.37-5.47,2.14-2.82,5.81.5.7,2.71,3.05,3.43,3.26.31.09.47-.05.35-.35-.56-1.44-4.08-4.02-2.84-5.95.86-1.33,3.55.03,4.67.53,1.5.66,2.87,1.78,4.43,2.26,3.1.96,6.95-.02,9.83,1.4.29.14,1.97,1.06,1.58,1.4-1.17-.43-1.94,1-2.72.96-1.22-.06-2.72-2.85-4.98-2.35s-3.62,4.46-5.01,5.03-2.89-.04-4.24-.06l2.06,1.4c3.16,1.39,4.5-1.26,7.02-2.36.32.3-2.32,3.23-2.78,3.54-1.15.78-2.04.86-3.42.76-.11.65.12.41.52.54,1.82.59,3.14.48,4.9-.26.73-.31,4.5-2.99,4.85-2.67-.31.71-.94,1.68-1.44,2.26-.95,1.12-2.23,2.46-3.82,2.27-.53.41,1.2.87,1.37.9,3.22.48,3.34-.94,5.63-2.14,1.81-.94,3.08-.76,4.9.08l-.2,2.59c3.05-.72,3.97-4.16,3.82-6.92-.4-.11-.11.46-.37.5-.96.15-1.94-1.28-2.01-2.17l2.86-.24c-.84-2.37-4.03-3.87-6.45-4.06ZM14.09,28.42c1.97-1.37,3.1-4.17,2.84-6.54-.36-3.28-3.6-4.98-4.72-7.94-.41-1.08-.53-2.05-.63-3.19-1.32,2.45-.8,5.31-.12,7.88-.84-.04-1.55-1.33-1.66-2.04-.04-.26.19-2.98-.49-2.25-.29,1.68-1.2,3.4-1.2,5.13,0,1.1,1.06,3.97.92,4.48-.26.95-1.4.69-1.85.03-.26-.39-.18-.98-.62-1.28-1.1,1.5.7,4.06,1.67,5.25.44.55,3.7,3.73,4.18,3.34-.63-1.22-1.33-2.86-1.37-4.24-.03-1.13.6-2.36.63-3.3s-.75-1.76-.58-2.72c2.42,1.68,3.3,4.52,2.99,7.4ZM32,27.94c-.55-.14-.39.1-.55.3-2.2,2.82.48,5.36.06,8.4-.08.54-.57.97-.46,1.56,3.73-.69,8.45-3.07,6.44-7.64l-.83.74c-1.88-1.11-5.28-.24-4.66-3.37ZM20.78,33.43c1.24-1.84,2.4-2.29,4.53-1.55-3.79-6.62-7.24,1-11.83,1.08-.74.01-2.01-.31-2.66-.67-1.09-.61-.94-1.62-1.98-1.96-.22,2.77,1.84,5.84,4.53,6.58,3.11.86,5.89-1.14,8.61.71-1.53.41-3.19.75-4.68,1.29-.33.12-.41-.08-.33.5,4.92,1.62,11.03.65,11.46-5.49-2.83,2.83-4.56-.45-7.64-.48Z"/>
  <path fill="#dd3929" d="M38.86,40.39c.83-.12,1.32.66.68,1.42-.55.65-5.46,4.31-4.64,1.58.07-.24,3.71-2.96,3.96-3Z"/>
  <path fill="#fdfbfa" d="M36.3,15.52c2.42.19,5.61,1.69,6.45,4.06l-2.86.24c.07.88,1.05,2.32,2.01,2.17.26-.04-.03-.6.37-.5.15,2.77-.77,6.2-3.82,6.92l.2-2.59c-1.82-.84-3.08-1.03-4.9-.08-2.29,1.19-2.41,2.62-5.63,2.14-.17-.03-1.9-.49-1.37-.9,1.59.19,2.87-1.15,3.82-2.27.49-.59,1.13-1.55,1.44-2.26-.35-.32-4.12,2.36-4.85,2.67-1.75.74-3.08.85-4.9.26-.4-.13-.63.11-.52-.54,1.38.1,2.27.03,3.42-.76.46-.32,3.1-3.24,2.78-3.54-2.52,1.1-3.85,3.75-7.02,2.36l-2.06-1.4c1.35.02,2.91.59,4.24.06,1.39-.56,2.72-4.52,5.01-5.03s3.76,2.29,4.98,2.35c.79.04,1.56-1.39,2.72-.96.39-.34-1.3-1.26-1.58-1.4-2.87-1.41-6.73-.44-9.83-1.4-1.56-.48-2.93-1.59-4.43-2.26-1.12-.5-3.81-1.86-4.67-.53-1.25,1.93,2.28,4.51,2.84,5.95.12.3-.04.44-.35.35-.72-.21-2.92-2.56-3.43-3.26-2.64-3.68-3.05-7.18,2.82-5.81.38-.88-2.61-.77-1.91-1.43,5.88-1.66,13.36-.6,18.37,3,.52.37,2.57,2.06,2.77,2.49.3.65-.23,1.26-.13,1.9Z"/>
  <path fill="#fdfaf9" d="M20.78,33.43c3.08.03,4.81,3.31,7.64.48-.43,6.14-6.54,7.11-11.46,5.49-.07-.58,0-.38.33-.5,1.49-.54,3.15-.88,4.68-1.29-2.72-1.85-5.49.15-8.61-.71-2.69-.74-4.75-3.81-4.53-6.58,1.04.33.89,1.35,1.98,1.96.65.37,1.93.69,2.66.67,4.59-.08,8.04-7.7,11.83-1.08-2.13-.74-3.29-.29-4.53,1.55Z"/>
  <path fill="#fdf9f8" d="M14.09,28.42c.31-2.88-.56-5.72-2.99-7.4-.17.96.61,1.75.58,2.72s-.66,2.17-.63,3.3c.04,1.39.73,3.02,1.37,4.24-.48.39-3.74-2.79-4.18-3.34-.97-1.19-2.77-3.75-1.67-5.25.44.3.36.89.62,1.28.45.66,1.59.92,1.85-.03.14-.52-.92-3.38-.92-4.48,0-1.73.91-3.46,1.2-5.13.68-.73.45,1.99.49,2.25.11.71.82,2,1.66,2.04-.68-2.57-1.2-5.43.12-7.88.1,1.14.22,2.11.63,3.19,1.12,2.96,4.36,4.66,4.72,7.94.26,2.37-.87,5.17-2.84,6.54Z"/>
  <path fill="#fdfafa" d="M32,27.94c-.61,3.12,2.79,2.25,4.66,3.37l.83-.74c2.01,4.57-2.71,6.95-6.44,7.64-.1-.6.39-1.02.46-1.56.42-3.04-2.26-5.58-.06-8.4.15-.2,0-.44.55-.3Z"/>
</svg>