<svg xmlns="http://www.w3.org/2000/svg" id="Layer_1" data-name="Layer 1" viewBox="0 0 200 200" style="&#10;    stroke: blue;&#10;"><script xmlns="" id="pphgdbgldlmicfdkhondlafkiomnelnk"/><script xmlns=""/><script xmlns=""/><script xmlns="" id="pphgdbgldlmicfdkhondlafkiomnelnk"/><script xmlns=""/><script xmlns=""/>
  <defs>
    <style>
      .cls-1 {
        fill: #484b76;
      }

      .cls-2 {
        fill: #fcfcfc;
      }

      .cls-3 {
        fill: #fcc009;
      }

      .cls-4 {
        fill: #464a75;
      }

      .cls-5 {
        fill: #dddee6;
      }

      .cls-6 {
        fill: #494d78;
      }

      .cls-7 {
        fill: #f3f3f6;
      }

      .cls-8 {
        fill: #f2f2f5;
      }

      .cls-9 {
        fill: #e2e3e9;
      }
    </style>
  </defs>
  
  <path class="cls-4" d="M149,48c-.21-1.02.46-3.24-.11-3.87l-11.89-6.12c4.07-.18,18.02,1.55,19.84,4.65l7.17,39.34,14.27-3.86,16.72,16.36-13.99,2.49,1-2.98-16,2.01,5.86,39.85c-1.66.29-4.15,1.91-5.55,1.95-3,.07-17.95-22.46-22.29-25.32l1.47-1.47,10.51,4.98-2-19c-3.51,1.51-19.84,2.63-20.86,5.64l-1.14,42.36-27.99-21.51c-.41-2.17.97-1.54,2.47-1.48,3.23.14,6.86,1.91,10.41.88l4.1-25.88-26.89,8.09c-.14,3.43-.25,6.95-.09,10.39.44,9.63,2.82,20.46,3.07,30.01.23,8.75-13.94,12.97-20.72,16.36-9.63,4.81-59.44,29.73-65.85,30.16-.63.04-1.65.27-1.51-.52,1.37-1.29,2.58-2.76,3.98-4.02,18.16-16.38,41.44-31.69,58.48-48.52,1.89-1.86,3.48-2.79,4.51-5.49,2.34-6.18,1.96-14.99,4.02-21.47-1.37-1.26-18.04,6.8-21.57,6.98-1.83.09-1.5-.36-1.93-1.93-.58-2.13-2.7-19.1-2.34-20.33l14.86-19.22c-2.97-2.29-5.59-7.76-7.54-11.48-4.44-8.47-8.8-17.18-12.47-26.02,11.43,4.42,23.23,15.61,36.48,12.97,3.32-.66,10.57-13.16,11.51-16.97-.78-.83-12.78,8.89-14.95,9.54-3.57,1.06-8.18.35-11.91.32l-12.14-37.86,3.56.93,22.08,24.96,10.86-6.89,1-14.02,23.54,21.46c3.05,1.98-3.84,11.09-5.33,12.26-2.86,2.26-15.5,4.25-19.72,5.3-.33.26,1.27,1.99,1.5,1.99h15c5.19,0,8.95,5.35,11.5,9.48l-16,8.01c5.1,4.78,14.32,6.68,17.01,13.5,1.48.19,1.48-2.69,1.69-3.79.72-3.85,3.28-27.22,4.31-28.2,2.61-.31,1.57.04,2.01,1.46,1.55,5,.48,10.47,2.01,15.5,6.42-.42,11.75-3.56,15.96,3.04-.33,1.37.39,2.99-.51,4.96-1.72,3.74-10.14,9.98-12.49,14.03l16.59-4.96c-.58-4.5-.25-9.11-.54-13.62-.09-1.3-1.03-2.24-1.04-2.42-.16-1.98.16-4.02,0-6-.18-2.14-.93-4.25-1-5-.19-1.94.21-4.07,0-6-.29-2.58-.49-3.57-1-6ZM105,63.01l-17.99,5c-.32,2.91,2.85,2.24,3.57,4.9.59,2.18.93,13.59,1.43,14.1l16.97-5.6-5.1-10.34-4.87.92,5.99-8.98ZM73,75.5v15c0,.15,1.03,2.44,1.65,2.57,12.79-.64,8.12-13.86,11.37-22.56-2.25-1.74-12.59,3.53-13.01,4.99ZM140,75.01l-6.86,1.14-.13,6.85c1.09,1.27,7.79-7.3,6.99-7.99Z"/>
  <path class="cls-3" d="M50.99,80l-14.01,73.31-2.48.71L7.01,113.01c6.08.41,11.55,4.33,17.79,2.78,7.41-10.84,14.83-23.3,22.98-33.51.94-1.18,1.13-2.74,3.21-2.28Z"/>
  <path class="cls-1" d="M24,90.99l4.51-8.97c-4.09,1.71-10.79,8.53-14.45,9.57-1.32.38-1.6.8-2.55-.6s-5.4-24.08-4.51-24.99c8.94,2.19,30.74-1.49,35.56,8,.73,1.44.22,1.47-.5,2.53-1.76,2.56-11.29,11.41-14.02,13.01-1.31.77-1.97,2.01-4.03,1.46Z"/>
  <path class="cls-6" d="M47,42.01c.59.81-5.34,7.71-6.48,9-2.5,2.82-8,9.56-11.51,8.49l3.99-8.5-23.99,4.99,16.63-22.86,21.37,8.88Z"/>
  
  
  
  
  
  
</svg>
